<?xml version="1.0" encoding="utf-8"?>
<!-- Generator: Adobe Illustrator 16.0.0, SVG Export Plug-In . SVG Version: 6.00 Build 0)  -->
<!DOCTYPE svg PUBLIC "-//W3C//DTD SVG 1.1//EN" "http://www.w3.org/Graphics/SVG/1.1/DTD/svg11.dtd">
<svg version="1.1" id="Layer_1" xmlns="http://www.w3.org/2000/svg" xmlns:xlink="http://www.w3.org/1999/xlink" x="0px" y="0px"
	 width="24px" height="24px" viewBox="0 0 24 24" enable-background="new 0 0 24 24" xml:space="preserve">
<g>
	<path fill="#FFFFFF" d="M15.5,8.489c-2.344,0-4.25-1.906-4.25-4.25c0-2.344,1.907-4.25,4.25-4.25c2.342,0,4.25,1.906,4.25,4.25
		C19.75,6.583,17.842,8.489,15.5,8.489z"/>
	<path fill="#FFFFFF" d="M22.975,11.831l-1-3c-0.084-0.248-0.346-0.391-0.596-0.326c-0.025,0.006-1.547,0.369-3.105,0.174
		C17.467,9.186,16.52,9.49,15.5,9.49c-1.732,0-3.259-0.854-4.216-2.15c-1.413,1.351-1.961,3.028-2.406,4.427
		c-0.251,0.79-0.469,1.473-0.794,1.947c-1.826,2.738-6.537,2.777-6.584,2.777c-0.154,0-0.299,0.069-0.394,0.19
		c-0.094,0.123-0.128,0.279-0.09,0.43l1,4c0.056,0.224,0.255,0.379,0.485,0.379c0.248,0,5.955-0.045,9.134-3.862
		c3.495,1.964,4.867,5.998,4.881,6.039c0.043,0.131,0.139,0.237,0.262,0.295c0.068,0.032,0.142,0.049,0.214,0.049
		c0.063,0,0.122-0.012,0.183-0.034c0.016-0.004,1.396-0.547,3.538-1.531c0.218-0.101,0.334-0.342,0.274-0.574
		c-0.844-3.379-2.407-6.096-4.659-8.102c2.891,0.054,6.19-1.246,6.36-1.313C22.932,12.355,23.059,12.082,22.975,11.831z"/>
</g>
</svg>
