<?xml version="1.0" encoding="utf-8"?>
<!-- Generator: Adobe Illustrator 16.0.0, SVG Export Plug-In . SVG Version: 6.00 Build 0)  -->
<!DOCTYPE svg PUBLIC "-//W3C//DTD SVG 1.1//EN" "http://www.w3.org/Graphics/SVG/1.1/DTD/svg11.dtd">
<svg version="1.1" id="Layer_1" xmlns="http://www.w3.org/2000/svg" xmlns:xlink="http://www.w3.org/1999/xlink" x="0px" y="0px"
	 width="24px" height="24px" viewBox="0 0 24 24" enable-background="new 0 0 24 24" xml:space="preserve">
<g>
	<path fill="#FFFFFF" d="M7.365,19.898c-0.009,0-0.018,0-0.026,0c-0.672-0.045-0.922-0.467-0.908-0.98
		c0.006-0.217,0.155-5.344,0.962-8.215c0.14-0.496,0.656-0.791,1.152-0.65c0.497,0.14,0.786,0.652,0.647,1.148
		c-0.746,2.648-0.893,7.719-0.894,7.77C8.284,19.477,7.869,19.898,7.365,19.898z"/>
	<path fill="#FFFFFF" d="M3.18,19.916c-0.215,0-0.424-0.021-0.623-0.064C0.956,19.51,0,17.975,0,15.75
		c0-2.334,0.974-4.225,2.742-5.326c1.772-1.103,4.112-1.228,5.962-0.316c0.463,0.229,0.653,0.787,0.426,1.25
		c-0.229,0.463-0.787,0.654-1.251,0.427c-1.264-0.623-2.932-0.531-4.149,0.227c-0.85,0.53-1.862,1.608-1.862,3.741
		c0,1.279,0.404,2.131,1.08,2.272c1.008,0.216,2.686-0.93,3.829-3.475c0.211-0.471,0.765-0.68,1.234-0.469
		c0.471,0.211,0.681,0.764,0.469,1.234C7.022,18.563,4.876,19.916,3.18,19.916z"/>
	<path fill="#FFFFFF" d="M12.027,19.854c-1.031,0.002-2.062-0.266-2.794-0.688c-0.447-0.258-0.6-0.828-0.342-1.275
		c0.257-0.447,0.827-0.602,1.275-0.344c0.817,0.471,2.367,0.631,3.217,0.141c0.387-0.225,0.561-0.539,0.561-1.021
		c0-1.129-0.459-1.358-1.497-1.776c-0.854-0.347-2.144-0.865-2.144-2.511c0-0.776,0.337-1.484,0.95-1.996
		c0.694-0.578,2.062-1.172,4.646-0.699c0.509,0.092,0.846,0.579,0.752,1.086c-0.094,0.508-0.573,0.847-1.088,0.752
		c-2.043-0.374-2.857,0.083-3.114,0.297c-0.187,0.155-0.278,0.339-0.278,0.561c0,0.305,0.039,0.399,0.975,0.776
		c0.996,0.401,2.666,1.073,2.666,3.512c0,1.146-0.529,2.082-1.494,2.642C13.648,19.689,12.838,19.854,12.027,19.854z"/>
	<path fill="#FFFFFF" d="M16.714,20.025c-0.06,0-0.118-0.006-0.179-0.019c-0.508-0.1-0.838-0.588-0.739-1.096l2.754-14.18
		c0.099-0.506,0.585-0.837,1.095-0.739c0.506,0.1,0.836,0.59,0.738,1.096L17.63,19.27C17.543,19.715,17.152,20.025,16.714,20.025z"
		/>
	<path fill="#FFFFFF" d="M17.43,16.34c-0.229,0-0.457-0.082-0.637-0.25c-0.379-0.352-0.398-0.941-0.049-1.32l5.639-6.064
		c0.352-0.379,0.941-0.397,1.318-0.048c0.379,0.351,0.4,0.942,0.049,1.319l-5.639,6.065C17.93,16.24,17.68,16.34,17.43,16.34z"/>
	<path fill="#FFFFFF" d="M22.627,20.025c-0.354,0-0.691-0.203-0.85-0.547l-2.844-6.218c-0.216-0.469-0.011-1.024,0.461-1.238
		c0.469-0.214,1.021-0.009,1.235,0.46l2.847,6.219c0.215,0.469,0.008,1.022-0.461,1.235C22.891,19.998,22.758,20.025,22.627,20.025z
		"/>
</g>
</svg>
