<?xml version="1.0" encoding="utf-8"?>
<!-- Generator: Adobe Illustrator 16.0.0, SVG Export Plug-In . SVG Version: 6.00 Build 0)  -->
<!DOCTYPE svg PUBLIC "-//W3C//DTD SVG 1.1//EN" "http://www.w3.org/Graphics/SVG/1.1/DTD/svg11.dtd">
<svg version="1.1" id="Layer_1" xmlns="http://www.w3.org/2000/svg" xmlns:xlink="http://www.w3.org/1999/xlink" x="0px" y="0px"
	 width="24px" height="24px" viewBox="0 0 24 24" enable-background="new 0 0 24 24" xml:space="preserve">
<g>
	<path fill="#FFFFFF" d="M14.875,5h-5.75C7.611,5,6.469,6.074,6.469,7.5S7.611,10,9.125,10h5.75C17,10,19,12.63,19,14.668v0.414
		C19,17.133,17.034,19,14.875,19h-5.75C7.005,19,5,17.045,5,14.977V2.547C5,1.071,3.949,0,2.5,0S0,1.071,0,2.547V15
		c0,0.057,0.015,0.109,0.032,0.16C0.014,15.211,0,15.264,0,15.32C0,20.268,3.923,24,9.125,24h5.75C20.163,24,24,20.467,24,15.598
		v-0.793C24,9.582,19.736,5,14.875,5z"/>
</g>
</svg>
