<?xml version="1.0" encoding="utf-8"?>
<!-- Generator: Adobe Illustrator 16.0.0, SVG Export Plug-In . SVG Version: 6.00 Build 0)  -->
<!DOCTYPE svg PUBLIC "-//W3C//DTD SVG 1.1//EN" "http://www.w3.org/Graphics/SVG/1.1/DTD/svg11.dtd">
<svg version="1.1" id="Layer_1" xmlns="http://www.w3.org/2000/svg" xmlns:xlink="http://www.w3.org/1999/xlink" x="0px" y="0px"
	 width="24px" height="24px" viewBox="0 0 24 24" enable-background="new 0 0 24 24" xml:space="preserve">
<g>
	<path fill="#FFFFFF" d="M10.354,11.757c0.813-0.771,1.326-2.086,1.326-3.287C11.68,6.134,9.762,4,7.405,4h-6.28
		c-0.52,0-1,0.498-1,1.018v13.966c0,0.521,0.512,1.017,1.031,1.017h6.248c3.079,0,5.147-1.938,5.147-4.471
		C12.552,14,11.71,12.497,10.354,11.757z M2.125,6h5.279c1.319,0,2.393,1.203,2.393,2.5S8.724,11,7.404,11H2.125V6z M7.404,18H2.125
		v-5h5.279c1.625,0,3.265,0.875,3.265,2.5C10.669,17.684,8.171,18,7.404,18z"/>
	<path fill="#FFFFFF" d="M23.875,13.971c0-4.034-1.898-6.123-5.646-6.123c-2.854,0-5.176,2.493-5.176,5.585
		c0,0.129,0.01,0.243,0.02,0.368c-0.004,0.031-0.02,0.054-0.02,0.084c0,0.068,0.023,0.123,0.037,0.188
		c0.311,2.863,2.615,4.947,5.609,4.947c1.473,0,3.498-0.715,4.518-2.074c0.313-0.416,0.229-1.006-0.188-1.318
		c-0.416-0.311-1.006-0.227-1.317,0.189c-0.545,0.727-1.896,1.406-3.011,1.406c-1.667,0-2.979-1.226-3.508-2.226h7.742
		C23.454,15,23.875,14.49,23.875,13.971z M18.229,9.745c2.404,0,3.502,1.255,3.721,3.255h-6.973
		C15.184,11,16.555,9.745,18.229,9.745z"/>
	<path fill="#FFFFFF" d="M15.875,7h5.646c0.521,0,0.94-0.48,0.94-1s-0.421-1-0.94-1h-5.646c-0.52,0-0.941,0.48-0.941,1
		S15.355,7,15.875,7z"/>
</g>
</svg>
