<?xml version="1.0" encoding="utf-8"?>
<!-- Generator: Adobe Illustrator 16.0.0, SVG Export Plug-In . SVG Version: 6.00 Build 0)  -->
<!DOCTYPE svg PUBLIC "-//W3C//DTD SVG 1.1//EN" "http://www.w3.org/Graphics/SVG/1.1/DTD/svg11.dtd">
<svg version="1.1" id="Layer_1" xmlns="http://www.w3.org/2000/svg" xmlns:xlink="http://www.w3.org/1999/xlink" x="0px" y="0px"
	 width="24px" height="24px" viewBox="0 0 24 24" enable-background="new 0 0 24 24" xml:space="preserve">
<g>
	<path fill="#FFFFFF" d="M14,9.5V5h-4v4.5C10,9.775,9.776,10,9.5,10H5v4h4.5c0.276,0,0.5,0.225,0.5,0.5V19h4v-4.5
		c0-0.275,0.225-0.5,0.5-0.5H19v-4h-4.5C14.225,10,14,9.775,14,9.5z"/>
	<path fill="#FFFFFF" d="M18.5,0h-13C2.467,0,0,2.467,0,5.5v13C0,21.533,2.467,24,5.5,24h13c3.033,0,5.5-2.467,5.5-5.5v-13
		C24,2.467,21.533,0,18.5,0z M20,14.5c0,0.275-0.225,0.5-0.5,0.5H15v4.5c0,0.275-0.225,0.5-0.5,0.5h-5C9.224,20,9,19.775,9,19.5V15
		H4.5C4.224,15,4,14.775,4,14.5v-5C4,9.225,4.224,9,4.5,9H9V4.5C9,4.225,9.224,4,9.5,4h5C14.775,4,15,4.225,15,4.5V9h4.5
		C19.775,9,20,9.225,20,9.5V14.5z"/>
</g>
</svg>
