<?xml version="1.0" encoding="utf-8"?>
<!-- Generator: Adobe Illustrator 16.0.0, SVG Export Plug-In . SVG Version: 6.00 Build 0)  -->
<!DOCTYPE svg PUBLIC "-//W3C//DTD SVG 1.1//EN" "http://www.w3.org/Graphics/SVG/1.1/DTD/svg11.dtd">
<svg version="1.1" id="Layer_1" xmlns="http://www.w3.org/2000/svg" xmlns:xlink="http://www.w3.org/1999/xlink" x="0px" y="0px"
	 width="24px" height="24px" viewBox="0 0 24 24" enable-background="new 0 0 24 24" xml:space="preserve">
<g>
	<path fill="#FFFFFF" d="M21.664,9.505l-11.5-4C9.979,5.44,9.773,5.491,9.639,5.632c-0.136,0.142-0.176,0.35-0.103,0.531l2,5
		c0.045,0.112,0.131,0.207,0.241,0.262l3.122,1.562L4.115,18.577l3.792-5.31C7.968,13.184,8,13.081,8,12.979V2.462
		c0-0.205-0.125-0.39-0.314-0.466l-5-2C2.533-0.065,2.357-0.047,2.22,0.048C2.083,0.141,2,0.296,2,0.462v19.517
		c0,0.02,0.015,0.032,0.017,0.052c0.009,0.075,0.028,0.146,0.068,0.21c0.019,0.029,0.042,0.049,0.066,0.072
		c0.026,0.027,0.043,0.063,0.076,0.084l5.479,3.563c0.083,0.054,0.177,0.08,0.272,0.08c0.084,0,0.168-0.021,0.245-0.063
		l13.521-7.563C21.902,16.325,22,16.159,22,15.979v-6C22,9.765,21.865,9.575,21.664,9.505z"/>
</g>
</svg>
