<?xml version="1.0" encoding="utf-8"?>
<!-- Generator: Adobe Illustrator 16.0.0, SVG Export Plug-In . SVG Version: 6.00 Build 0)  -->
<!DOCTYPE svg PUBLIC "-//W3C//DTD SVG 1.1//EN" "http://www.w3.org/Graphics/SVG/1.1/DTD/svg11.dtd">
<svg version="1.1" id="Layer_1" xmlns="http://www.w3.org/2000/svg" xmlns:xlink="http://www.w3.org/1999/xlink" x="0px" y="0px"
	 width="24px" height="24px" viewBox="0 0 24 24" enable-background="new 0 0 24 24" xml:space="preserve">
<g>
	<path fill="#FFFFFF" d="M10.411,12c0-0.175-0.093-0.337-0.245-0.424L0.859,6.203c-0.151-0.088-0.464-0.088-0.614,0
		c-0.152,0.088-0.37,0.25-0.37,0.424v10.746c0,0.175,0.218,0.336,0.37,0.424c0.075,0.043,0.223,0.064,0.307,0.064
		c0.084,0,0.201-0.021,0.276-0.064l9.322-5.373C10.302,12.337,10.411,12.176,10.411,12z"/>
	<path fill="#FFFFFF" d="M13.35,1.225c-3.774,0-7.209,1.929-9.188,5.157C3.878,6.843,4.023,7.446,4.484,7.729
		c0.46,0.283,1.064,0.14,1.347-0.322c1.62-2.645,4.431-4.223,7.521-4.223c4.86,0,8.815,3.955,8.815,8.816
		c0,4.861-3.955,8.816-8.815,8.816c-3.089,0-5.899-1.578-7.521-4.224c-0.281-0.461-0.885-0.604-1.347-0.321
		c-0.461,0.28-0.606,0.886-0.323,1.347c1.979,3.229,5.413,5.157,9.188,5.157c5.94,0,10.774-4.834,10.774-10.775
		C24.124,6.059,19.291,1.225,13.35,1.225z"/>
	<path fill="#FFFFFF" d="M13.35,17.877c-2.023,0-3.882-1.033-4.971-2.768c-0.288-0.457-0.893-0.598-1.351-0.31
		s-0.597,0.894-0.309,1.353c1.448,2.307,3.927,3.685,6.63,3.685c4.32,0,7.836-3.517,7.836-7.837c0-4.32-3.516-7.837-7.836-7.837
		c-2.704,0-5.183,1.378-6.63,3.685C6.431,8.307,6.57,8.911,7.028,9.199C7.486,9.487,8.091,9.347,8.379,8.89
		c1.088-1.733,2.946-2.768,4.971-2.768c3.241,0,5.877,2.636,5.877,5.877S16.591,17.877,13.35,17.877z"/>
</g>
</svg>
