<?xml version="1.0" encoding="utf-8"?>
<!-- Generator: Adobe Illustrator 16.0.0, SVG Export Plug-In . SVG Version: 6.00 Build 0)  -->
<!DOCTYPE svg PUBLIC "-//W3C//DTD SVG 1.1//EN" "http://www.w3.org/Graphics/SVG/1.1/DTD/svg11.dtd">
<svg version="1.1" id="Layer_1" xmlns="http://www.w3.org/2000/svg" xmlns:xlink="http://www.w3.org/1999/xlink" x="0px" y="0px"
	 width="24px" height="24px" viewBox="0 0 24 24" enable-background="new 0 0 24 24" xml:space="preserve">
<g>
	<path fill="#FFFFFF" d="M21,9c-0.521,0-1-0.166-1-1.375V6.5C20,2.916,17.084,0,13.5,0h-7C2.916,0,0,2.916,0,6.5v11
		C0,21.084,2.916,24,6.5,24h10.438C21.029,24,24,21.135,24,17.188V12C24,10.346,22.654,9,21,9z M7.5,6h5C13.326,6,14,6.673,14,7.5
		S13.326,9,12.5,9h-5C6.672,9,6,8.327,6,7.5S6.672,6,7.5,6z M16.5,18h-9C6.672,18,6,17.327,6,16.5S6.672,15,7.5,15h9
		c0.826,0,1.5,0.673,1.5,1.5S17.326,18,16.5,18z"/>
</g>
</svg>
