<?xml version="1.0" encoding="utf-8"?>
<!-- Generator: Adobe Illustrator 16.0.0, SVG Export Plug-In . SVG Version: 6.00 Build 0)  -->
<!DOCTYPE svg PUBLIC "-//W3C//DTD SVG 1.1//EN" "http://www.w3.org/Graphics/SVG/1.1/DTD/svg11.dtd">
<svg version="1.1" id="Layer_1" xmlns="http://www.w3.org/2000/svg" xmlns:xlink="http://www.w3.org/1999/xlink" x="0px" y="0px"
	 width="24px" height="24px" viewBox="0 0 24 24" enable-background="new 0 0 24 24" xml:space="preserve">
<g>
	<path fill="#FFFFFF" d="M23.457,0.042H8.395c-1.368,0-2.563,0.926-2.905,2.25L0.058,23.333c-0.044,0.172,0.006,0.354,0.131,0.479
		c0.095,0.096,0.223,0.146,0.354,0.146c0.042,0,0.083-0.005,0.125-0.017l21.041-5.434c1.325-0.342,2.25-1.535,2.25-2.904V0.542
		C23.957,0.267,23.732,0.042,23.457,0.042z M16.611,15.969c-0.553,0.387-1.227,0.577-2.026,0.577c-0.844,0-1.832-0.213-2.976-0.639
		c-0.393-0.146-0.651-0.521-0.651-0.938V3.042c0-0.553,0.448-1,1-1c0.552,0,1,0.447,1,1v3.992c0.937-0.494,1.899-0.586,2.795-0.242
		c1.543,0.591,2.501,2.369,2.501,4.641C18.254,12.891,18.083,14.945,16.611,15.969z"/>
	<path fill="#FFFFFF" d="M15.037,8.659c-0.58-0.223-1.331,0.096-2.08,0.874v4.722c1.189,0.366,2.052,0.394,2.514,0.071
		c0.521-0.36,0.783-1.335,0.783-2.895C16.254,10.031,15.775,8.942,15.037,8.659z"/>
</g>
</svg>
