<?xml version="1.0" encoding="utf-8"?>
<!-- Generator: Adobe Illustrator 16.0.0, SVG Export Plug-In . SVG Version: 6.00 Build 0)  -->
<!DOCTYPE svg PUBLIC "-//W3C//DTD SVG 1.1//EN" "http://www.w3.org/Graphics/SVG/1.1/DTD/svg11.dtd">
<svg version="1.1" id="Layer_1" xmlns="http://www.w3.org/2000/svg" xmlns:xlink="http://www.w3.org/1999/xlink" x="0px" y="0px"
	 width="24px" height="24px" viewBox="0 0 24 24" enable-background="new 0 0 24 24" xml:space="preserve">
<g>
	<path fill="#FFFFFF" d="M23.605,16.882c-0.201-6.039-5.113-10.788-11.237-10.92V5c0-0.275-0.224-0.5-0.5-0.5h-3
		c-0.276,0-0.5,0.225-0.5,0.5v1.519C4.607,7.846,0.6,11.551,0.386,16.79c-0.007,0.153-0.001,2.212-0.001,2.212
		c0.001,0.275,0.225,0.498,0.5,0.498h10.984c0.276,0,0.5-0.225,0.5-0.5V9.784c2.492,0.265,6.033,2.418,6.99,5.716H17.37v-1.498
		c0-0.148-0.067-0.291-0.185-0.387c-1.059-0.87-2.108-1.529-3.121-1.961c-0.155-0.064-0.332-0.049-0.473,0.043
		c-0.141,0.093-0.225,0.25-0.225,0.418V19c0,0.275,0.225,0.5,0.5,0.5h9.25c0.133,0,0.26-0.053,0.354-0.146
		c0.096-0.094,0.146-0.223,0.146-0.354C23.619,18.998,23.611,17.006,23.605,16.882z M9.369,16c0,0.275-0.224,0.5-0.5,0.5H4.247
		c-0.148,0-0.289-0.064-0.384-0.18c-0.095-0.113-0.135-0.264-0.108-0.409c0.606-3.341,2.925-5.567,4.893-6.537
		c0.156-0.076,0.338-0.067,0.485,0.022c0.146,0.093,0.236,0.252,0.236,0.426V16z"/>
</g>
</svg>
