<?xml version="1.0" encoding="utf-8"?>
<!-- Generator: Adobe Illustrator 16.0.0, SVG Export Plug-In . SVG Version: 6.00 Build 0)  -->
<!DOCTYPE svg PUBLIC "-//W3C//DTD SVG 1.1//EN" "http://www.w3.org/Graphics/SVG/1.1/DTD/svg11.dtd">
<svg version="1.1" id="Layer_1" xmlns="http://www.w3.org/2000/svg" xmlns:xlink="http://www.w3.org/1999/xlink" x="0px" y="0px"
	 width="30px" height="24px" viewBox="0 0 30 24" enable-background="new 0 0 30 24" xml:space="preserve">
<g>
	<path fill="#FFFFFF" d="M4.5,3h-2C2.224,3,2,3.225,2,3.5V7h-4.5C-2.776,7-3,7.225-3,7.5v9c0,0.275,0.224,0.5,0.5,0.5h7
		C4.776,17,5,16.775,5,16.5v-13C5,3.225,4.776,3,4.5,3z M3,14.5C3,14.775,2.776,15,2.5,15h-3C-0.776,15-1,14.775-1,14.5v-5
		C-1,9.225-0.776,9-0.5,9h3C2.776,9,3,9.225,3,9.5V14.5z"/>
	<path fill="#FFFFFF" d="M8.5,17h-2C6.224,17,6,16.775,6,16.5v-8C6,8.225,6.224,8,6.5,8h2C8.776,8,9,8.225,9,8.5v8
		C9,16.775,8.776,17,8.5,17z"/>
	<path fill="#FFFFFF" d="M8.5,6h-2C6.224,6,6,5.775,6,5.5v-2C6,3.225,6.224,3,6.5,3h2C8.776,3,9,3.225,9,3.5v2
		C9,5.775,8.776,6,8.5,6z"/>
	<path fill="#FFFFFF" d="M17.5,8h-7C10.224,8,10,8.225,10,8.5v8c0,0.275,0.224,0.5,0.5,0.5H15v1h-4.5c-0.276,0-0.5,0.225-0.5,0.5v2
		c0,0.275,0.224,0.5,0.5,0.5h7c0.275,0,0.5-0.225,0.5-0.5v-12C18,8.225,17.775,8,17.5,8z M16,14.5c0,0.275-0.225,0.5-0.5,0.5h-3
		c-0.276,0-0.5-0.225-0.5-0.5v-4c0-0.275,0.224-0.5,0.5-0.5h3c0.275,0,0.5,0.225,0.5,0.5V14.5z"/>
	<path fill="#FFFFFF" d="M26.5,8h-7C19.225,8,19,8.225,19,8.5v8c0,0.275,0.225,0.5,0.5,0.5H24v1h-4.5c-0.275,0-0.5,0.225-0.5,0.5v2
		c0,0.275,0.225,0.5,0.5,0.5h7c0.275,0,0.5-0.225,0.5-0.5v-12C27,8.225,26.775,8,26.5,8z M25,14.5c0,0.275-0.225,0.5-0.5,0.5h-3
		c-0.275,0-0.5-0.225-0.5-0.5v-4c0-0.275,0.225-0.5,0.5-0.5h3c0.275,0,0.5,0.225,0.5,0.5V14.5z"/>
</g>
</svg>
