<?xml version="1.0" encoding="utf-8"?>
<!-- Generator: Adobe Illustrator 16.0.0, SVG Export Plug-In . SVG Version: 6.00 Build 0)  -->
<!DOCTYPE svg PUBLIC "-//W3C//DTD SVG 1.1//EN" "http://www.w3.org/Graphics/SVG/1.1/DTD/svg11.dtd">
<svg version="1.1" id="Layer_1" xmlns="http://www.w3.org/2000/svg" xmlns:xlink="http://www.w3.org/1999/xlink" x="0px" y="0px"
	 width="24px" height="24px" viewBox="0 0 24 24" enable-background="new 0 0 24 24" xml:space="preserve">
<g>
	<path fill="#FFFFFF" d="M7,5c1.381,0,2.5-1.119,2.5-2.5S8.381,0,7,0S4.5,1.12,4.5,2.5S5.619,5,7,5z"/>
	<path fill="#FFFFFF" d="M17,5c1.381,0,2.5-1.119,2.5-2.5S18.381,0,17,0s-2.5,1.119-2.5,2.5S15.619,5,17,5z"/>
	<path fill="#FFFFFF" d="M18.704,5.856c-0.181-0.08-0.392-0.048-0.538,0.086c-0.023,0.021-2.4,2.121-6.166,2.121
		c-3.742,0-6.137-2.158-6.161-2.181c-0.146-0.135-0.357-0.171-0.54-0.09C5.117,5.872,5,6.051,5,6.25V23.5C5,23.775,5.224,24,5.5,24
		h3C8.776,24,9,23.775,9,23.5V11.417c0.703,0.295,1.819,0.666,3,0.666c1.318,0,2.346-0.365,3-0.692V23.5c0,0.275,0.225,0.5,0.5,0.5
		h3c0.275,0,0.5-0.225,0.5-0.5V6.311C19,6.116,18.884,5.936,18.704,5.856z"/>
</g>
</svg>
