<?xml version="1.0" encoding="utf-8"?>
<!-- Generator: Adobe Illustrator 16.0.0, SVG Export Plug-In . SVG Version: 6.00 Build 0)  -->
<!DOCTYPE svg PUBLIC "-//W3C//DTD SVG 1.1//EN" "http://www.w3.org/Graphics/SVG/1.1/DTD/svg11.dtd">
<svg version="1.1" id="Layer_1" xmlns="http://www.w3.org/2000/svg" xmlns:xlink="http://www.w3.org/1999/xlink" x="0px" y="0px"
	 width="29px" height="24px" viewBox="0 0 29 24" enable-background="new 0 0 29 24" xml:space="preserve">
<g>
	<g>
		<path fill="#FFFFFF" d="M-1,12.5h-1c-0.276,0-0.5,0.225-0.5,0.5v4c0,0.275,0.224,0.5,0.5,0.5h1c1.378,0,2.5-1.121,2.5-2.5
			S0.378,12.5-1,12.5z M-1,16.5h-0.5v-3H-1c0.827,0,1.5,0.673,1.5,1.5S-0.173,16.5-1,16.5z"/>
		<path fill="#FFFFFF" d="M4.99,12.521c-1.363,0-2.471,1.109-2.471,2.479s1.108,2.479,2.471,2.479c1.363,0,2.471-1.11,2.471-2.479
			S6.353,12.521,4.99,12.521z M4.99,16.479c-0.811,0-1.471-0.664-1.471-1.479s0.66-1.479,1.471-1.479
			c0.811,0,1.471,0.664,1.471,1.479S5.801,16.479,4.99,16.479z"/>
		<path fill="#FFFFFF" d="M11,12.5H9c-0.276,0-0.5,0.225-0.5,0.5v4c0,0.275,0.224,0.5,0.5,0.5s0.5-0.225,0.5-0.5v-1.5H11
			c0.827,0,1.5-0.673,1.5-1.5S11.827,12.5,11,12.5z M11,14.5H9.5v-1H11c0.276,0,0.5,0.225,0.5,0.5S11.276,14.5,11,14.5z"/>
		<path fill="#FFFFFF" d="M16,12.5h-2c-0.275,0-0.5,0.225-0.5,0.5v4c0,0.275,0.225,0.5,0.5,0.5s0.5-0.225,0.5-0.5v-1.5H16
			c0.827,0,1.5-0.673,1.5-1.5S16.827,12.5,16,12.5z M16,14.5h-1.5v-1H16c0.275,0,0.5,0.225,0.5,0.5S16.275,14.5,16,14.5z"/>
		<path fill="#FFFFFF" d="M20.5,16.5h-1V13c0-0.275-0.225-0.5-0.5-0.5s-0.5,0.225-0.5,0.5v4c0,0.275,0.225,0.5,0.5,0.5h1.5
			c0.275,0,0.5-0.225,0.5-0.5S20.775,16.5,20.5,16.5z"/>
		<path fill="#FFFFFF" d="M26.124,14.982C26.355,14.718,26.5,14.378,26.5,14c0-0.827-0.673-1.5-1.5-1.5h-2
			c-0.275,0-0.5,0.225-0.5,0.5v4c0,0.275,0.225,0.5,0.5,0.5s0.5-0.225,0.5-0.5v-1.5h1.494c0.23,0.006,0.506,0.098,0.506,0.5v0.998
			c0,0.275,0.225,0.493,0.5,0.493s0.5-0.23,0.5-0.507V16C26.5,15.548,26.346,15.219,26.124,14.982z M23.5,13.5H25
			c0.275,0,0.5,0.225,0.5,0.5s-0.225,0.5-0.5,0.5h-1.5V13.5z"/>
	</g>
	<g>
		<rect x="8.5" y="6.5" fill="#FFFFFF" width="3" height="5"/>
		<rect x="12.5" y="6.5" fill="#FFFFFF" width="3" height="5"/>
		<rect x="4.5" y="6.5" fill="#FFFFFF" width="3" height="5"/>
		<path fill="#FFFFFF" d="M3.5,6.5H0c-0.276,0-0.5,0.225-0.5,0.5v4c0,0.275,0.224,0.5,0.5,0.5h3.5V6.5z"/>
		<rect x="16.5" y="6.5" fill="#FFFFFF" width="3" height="5"/>
		<path fill="#FFFFFF" d="M24,6.5h-3.5v5H24c0.275,0,0.5-0.225,0.5-0.5V7C24.5,6.725,24.275,6.5,24,6.5z"/>
	</g>
</g>
</svg>
