<?xml version="1.0" encoding="utf-8"?>
<!-- Generator: Adobe Illustrator 16.0.0, SVG Export Plug-In . SVG Version: 6.00 Build 0)  -->
<!DOCTYPE svg PUBLIC "-//W3C//DTD SVG 1.1//EN" "http://www.w3.org/Graphics/SVG/1.1/DTD/svg11.dtd">
<svg version="1.1" id="Layer_1" xmlns="http://www.w3.org/2000/svg" xmlns:xlink="http://www.w3.org/1999/xlink" x="0px" y="0px"
	 width="24px" height="24px" viewBox="0 0 24 24" enable-background="new 0 0 24 24" xml:space="preserve">
<g>
	<path fill="#FFFFFF" d="M23.975,12.518c-2.521-0.793-5.461-0.888-8.391-0.246c-0.461-1.138-0.98-2.254-1.559-3.346
		c2.871-1.063,5.322-2.646,6.873-4.947C22.818,6.108,24,8.917,24,12C24,12.175,23.98,12.345,23.975,12.518z M20.12,3.192
		c-1.427,2.235-3.808,3.758-6.621,4.776c-1.497-2.636-3.327-5.098-5.43-7.294C9.303,0.245,10.621,0,12,0
		C15.133,0,17.98,1.217,20.12,3.192z M6.913,1.147c2.094,2.127,3.92,4.572,5.42,7.209C8.507,9.517,4.074,9.874,0.198,9.884
		C0.892,6.007,3.45,2.778,6.913,1.147z M0,12c0-0.346,0.022-0.686,0.052-1.023c4.066-0.002,8.753-0.381,12.808-1.651
		c0.563,1.059,1.074,2.143,1.527,3.247c-4.108,1.188-8.055,3.864-10.621,8.135C1.453,18.518,0,15.428,0,12z M4.599,21.428
		c2.433-4.146,6.237-6.729,10.18-7.85c1.156,3.066,1.885,6.248,2.107,9.371C15.393,23.619,13.741,24,12,24
		C9.207,24,6.64,23.033,4.599,21.428z M17.979,22.389c-0.215-3.074-0.901-6.145-1.998-9.102c2.75-0.574,5.504-0.459,7.848,0.322
		c0.018,0.006,0.033,0.002,0.051,0.006C23.37,17.367,21.127,20.57,17.979,22.389z"/>
</g>
</svg>
