<?xml version="1.0" encoding="utf-8"?>
<!-- Generator: Adobe Illustrator 16.0.0, SVG Export Plug-In . SVG Version: 6.00 Build 0)  -->
<!DOCTYPE svg PUBLIC "-//W3C//DTD SVG 1.1//EN" "http://www.w3.org/Graphics/SVG/1.1/DTD/svg11.dtd">
<svg version="1.1" id="Layer_1" xmlns="http://www.w3.org/2000/svg" xmlns:xlink="http://www.w3.org/1999/xlink" x="0px" y="0px"
	 width="24px" height="24px" viewBox="0 0 24 24" enable-background="new 0 0 24 24" xml:space="preserve">
<g>
	<path fill="#FFFFFF" d="M23.5,4.5h-23C0.224,4.5,0,4.725,0,5v14c0,0.275,0.224,0.5,0.5,0.5h23c0.275,0,0.5-0.225,0.5-0.5V5
		C24,4.725,23.775,4.5,23.5,4.5z M21.249,16.343c0.239,0.138,0.321,0.443,0.185,0.685c-0.092,0.16-0.261,0.25-0.434,0.25
		c-0.084,0-0.17-0.021-0.249-0.065l-6.892-3.958L12.31,14.48c-0.011,0.009-0.026-0.037-0.039-0.028
		c-0.082,0.055-0.172,0.052-0.269,0.052H12l0,0l0,0h-0.001c-0.097,0-0.188,0.003-0.27-0.052c-0.012-0.009-0.027,0.017-0.039,0.008
		l-1.55-1.214l-6.891,3.963C3.17,17.252,3.085,17.275,3,17.275c-0.173,0-0.342-0.088-0.434-0.25
		c-0.138-0.238-0.055-0.543,0.185-0.684l6.544-3.758L2.69,7.368C2.473,7.195,2.437,6.882,2.607,6.666
		C2.779,6.449,3.093,6.412,3.31,6.583L12,13.447l8.689-6.864c0.217-0.171,0.531-0.134,0.703,0.083
		c0.172,0.216,0.135,0.53-0.082,0.702l-6.605,5.217L21.249,16.343z"/>
</g>
</svg>
