<?xml version="1.0" encoding="utf-8"?>
<!-- Generator: Adobe Illustrator 16.0.0, SVG Export Plug-In . SVG Version: 6.00 Build 0)  -->
<!DOCTYPE svg PUBLIC "-//W3C//DTD SVG 1.1//EN" "http://www.w3.org/Graphics/SVG/1.1/DTD/svg11.dtd">
<svg version="1.1" id="Layer_1" xmlns="http://www.w3.org/2000/svg" xmlns:xlink="http://www.w3.org/1999/xlink" x="0px" y="0px"
	 width="24px" height="24px" viewBox="0 0 24 24" enable-background="new 0 0 24 24" xml:space="preserve">
<g>
	<path fill="#FFFFFF" d="M6.679,5.002V0.449C6.498,0.539,6.331,0.643,6.2,0.773L2.075,4.898C2.05,4.923,2.023,4.966,1.998,5.002
		H6.679z"/>
	<path fill="#FFFFFF" d="M17.18,10.002c-0.552,0-1,0.448-1,1h2C18.18,10.45,17.729,10.002,17.18,10.002z"/>
	<path fill="#FFFFFF" d="M22.126,4.777c-0.38-0.759-1.388-2.775-4.446-2.775h-3.636c-0.563-1.292-2.495-2-3.771-2L9.601-0.002
		c-0.618,0-1.304,0.023-1.921,0.135v5.369c0,0.275-0.224,0.5-0.5,0.5H1.546c-0.208,0.648-0.366,1.43-0.366,2
		c0,0.777,0.661,6.57,1.744,7.846c1.559,1.836,6.18,2.234,7.241,2.234c1.045,0,1.81-1.898,2.207-3.406
		c0.702,0.955,1.888,1.834,3.31,1.834c1.254,0,2.75,0.441,2.75,2.508c0,1.946-2.488,1.984-2.595,1.984h-0.183
		c-0.541,0-2.219-0.027-2.219-0.496c0-0.27,1.244-0.48,1.244-0.48v-0.022c0,0,0.495,0,0.5,0c0.269,0,0.488-0.188,0.5-0.456
		c0,0,0.041-0.99,0.041-2.002c0-0.275-0.224-0.5-0.5-0.5c-4.079,0-4.688,2.167-4.688,3.458c0,1.597,0.934,3.5,5.381,3.5
		c2.458,0,4.342-0.493,5.546-2.899c0.83-1.66,1.25-4.723,1.25-9.101c0-0.77,0.031-1.471,0.06-2.124
		C22.855,7.922,22.926,6.377,22.126,4.777z M19.059,11.669c-0.072,0.199-0.26,0.333-0.472,0.333h-2.815
		c-0.213,0-0.399-0.134-0.472-0.333c-0.081-0.229-0.12-0.447-0.12-0.667c0-1.104,0.896-2,2-2c1.103,0,2,0.896,2,2
		C19.18,11.222,19.139,11.439,19.059,11.669z"/>
</g>
</svg>
