<?xml version="1.0" encoding="utf-8"?>
<!-- Generator: Adobe Illustrator 16.0.0, SVG Export Plug-In . SVG Version: 6.00 Build 0)  -->
<!DOCTYPE svg PUBLIC "-//W3C//DTD SVG 1.1//EN" "http://www.w3.org/Graphics/SVG/1.1/DTD/svg11.dtd">
<svg version="1.1" id="Layer_1" xmlns="http://www.w3.org/2000/svg" xmlns:xlink="http://www.w3.org/1999/xlink" x="0px" y="0px"
	 width="24px" height="24px" viewBox="0 0 24 24" enable-background="new 0 0 24 24" xml:space="preserve">
<g>
	<path fill="#FFFFFF" d="M21.5,0h-19C1.123,0,0,1.121,0,2.5v19C0,22.879,1.123,24,2.5,24h11c0.275,0,0.5-0.225,0.5-0.5v-9
		c0-0.275-0.225-0.5-0.5-0.5H10v-2h3.5c0.275,0,0.5-0.225,0.5-0.5v-4C14,5.529,16.15,4,18,4h2v2h-1c-1.443,0-3,0.86-3,2.25v3.25
		c0,0.275,0.225,0.5,0.5,0.5h3.307l-0.668,2H16.5c-0.275,0-0.5,0.225-0.5,0.5v9c0,0.275,0.225,0.5,0.5,0.5h5
		c1.377,0,2.5-1.121,2.5-2.5v-19C24,1.121,22.879,0,21.5,0z"/>
</g>
</svg>
