<?xml version="1.0" encoding="utf-8"?>
<!-- Generator: Adobe Illustrator 16.0.0, SVG Export Plug-In . SVG Version: 6.00 Build 0)  -->
<!DOCTYPE svg PUBLIC "-//W3C//DTD SVG 1.1//EN" "http://www.w3.org/Graphics/SVG/1.1/DTD/svg11.dtd">
<svg version="1.1" id="Layer_1" xmlns="http://www.w3.org/2000/svg" xmlns:xlink="http://www.w3.org/1999/xlink" x="0px" y="0px"
	 width="24px" height="24px" viewBox="0 0 24 24" enable-background="new 0 0 24 24" xml:space="preserve">
<g>
	<path fill="#FFFFFF" d="M16.202,4H18c0.275,0,0.5-0.225,0.5-0.5v-3C18.5,0.225,18.275,0,18,0h-2.945C12.096,0,9.5,2.357,9.5,5.045
		V9H6C5.724,9,5.5,9.225,5.5,9.5v4C5.5,13.775,5.724,14,6,14h3.5v9.5c0,0.275,0.224,0.5,0.5,0.5h3c0.275,0,0.5-0.225,0.5-0.5V14
		h3.275c0.224,0,0.42-0.146,0.479-0.361l1.147-4c0.043-0.15,0.015-0.313-0.079-0.438c-0.097-0.125-0.242-0.199-0.399-0.199H13.5
		V5.907C13.5,5.004,15.111,4,16.202,4z"/>
</g>
</svg>
