<?xml version="1.0" encoding="utf-8"?>
<!-- Generator: Adobe Illustrator 16.0.0, SVG Export Plug-In . SVG Version: 6.00 Build 0)  -->
<!DOCTYPE svg PUBLIC "-//W3C//DTD SVG 1.1//EN" "http://www.w3.org/Graphics/SVG/1.1/DTD/svg11.dtd">
<svg version="1.1" id="Layer_1" xmlns="http://www.w3.org/2000/svg" xmlns:xlink="http://www.w3.org/1999/xlink" x="0px" y="0px"
	 width="24px" height="24px" viewBox="0 0 24 24" enable-background="new 0 0 24 24" xml:space="preserve">
<g>
	<path fill="#FFFFFF" d="M20.555,15.777c0.002-0.188-0.004-0.387-0.01-0.579c-0.006-0.136-0.01-0.267-0.01-0.386
		c0-3.714-2.809-6.619-5.523-7.279c-0.148-0.035-0.307-0.002-0.428,0.095c-0.121,0.094-0.189,0.238-0.189,0.393
		c0,2.464-0.922,3.25-2.552,3.432c0.556-0.875,0.753-1.358,0.753-2.582c0-2.512-0.487-3.643-1.445-4.965
		c-0.832-1.15-0.839-3.367-0.839-3.39c0-0.187-0.104-0.358-0.269-0.444C9.876-0.015,9.677-0.001,9.525,0.104
		c-0.075,0.054-7.43,5.33-6.049,15.66c-1.947,0.828-2.972,1.896-2.972,3.098c0,2.729,5.372,5.123,11.496,5.123
		s11.496-2.395,11.496-5.123C23.494,17.663,22.479,16.604,20.555,15.777z M11.998,20.609c-3.047,0-6.337-2.021-6.337-5.291
		c0-1.975,1.302-3.983,2.587-4.95c0.163-0.121,0.383-0.133,0.558-0.026c0.174,0.104,0.268,0.306,0.236,0.506
		c-0.317,2.019,0.904,4.382,2.465,4.772c1.667,0.414,3.515-1.071,4.056-3.237c0.011-0.036,0.015-0.074,0.02-0.112l0.021-0.146
		c0.037-0.191,0.185-0.346,0.375-0.391c0.189-0.047,0.392,0.023,0.512,0.179c0.796,1.021,1.217,2.226,1.217,3.481
		C17.707,18.415,15.307,20.609,11.998,20.609z"/>
	<path fill="#FFFFFF" d="M11.266,16.59c-1.736-0.435-3.088-2.457-3.258-4.604c-0.741,0.895-1.347,2.14-1.347,3.334
		c0,2.566,2.76,4.291,5.337,4.291c2.729,0,4.709-1.772,4.709-4.219c0-0.679-0.15-1.338-0.439-1.949
		C15.369,15.676,13.229,17.079,11.266,16.59z"/>
</g>
</svg>
