<?xml version="1.0" encoding="utf-8"?>
<!-- Generator: Adobe Illustrator 16.0.0, SVG Export Plug-In . SVG Version: 6.00 Build 0)  -->
<!DOCTYPE svg PUBLIC "-//W3C//DTD SVG 1.1//EN" "http://www.w3.org/Graphics/SVG/1.1/DTD/svg11.dtd">
<svg version="1.1" id="Layer_1" xmlns="http://www.w3.org/2000/svg" xmlns:xlink="http://www.w3.org/1999/xlink" x="0px" y="0px"
	 width="24px" height="24px" viewBox="0 0 24 24" enable-background="new 0 0 24 24" xml:space="preserve">
<g>
	<circle fill="#FFFFFF" cx="16.996" cy="12.062" r="3"/>
	<circle fill="#FFFFFF" cx="6.996" cy="12.062" r="3"/>
	<path fill="#FFFFFF" d="M12,0C5.383,0,0,5.384,0,12s5.383,12,12,12s12-5.384,12-12S18.617,0,12,0z M6.996,16.063
		c-2.206,0-4-1.795-4-4c0-2.207,1.794-4,4-4s4,1.793,4,4C10.996,14.268,9.202,16.063,6.996,16.063z M16.996,16.063
		c-2.206,0-4-1.795-4-4c0-2.207,1.794-4,4-4s4,1.793,4,4C20.996,14.268,19.202,16.063,16.996,16.063z"/>
</g>
</svg>
