<?xml version="1.0" encoding="utf-8"?>
<!-- Generator: Adobe Illustrator 16.0.0, SVG Export Plug-In . SVG Version: 6.00 Build 0)  -->
<!DOCTYPE svg PUBLIC "-//W3C//DTD SVG 1.1//EN" "http://www.w3.org/Graphics/SVG/1.1/DTD/svg11.dtd">
<svg version="1.1" id="Layer_1" xmlns="http://www.w3.org/2000/svg" xmlns:xlink="http://www.w3.org/1999/xlink" x="0px" y="0px"
	 width="24px" height="24px" viewBox="0 0 24 24" enable-background="new 0 0 24 24" xml:space="preserve">
<g>
	<path fill="#FFFFFF" d="M19.059,16.504l-0.356,0.363c-0.668,0.684-1.244,1.273-2.304,1.689c-0.369,0.146-0.61,0.502-0.606,0.897
		l0.015,1.81l-2.922-1.9c-0.162-0.107-0.361-0.158-0.549-0.156c-0.264,0.008-0.54,0.012-0.828,0.012
		c-4.451,0-7.185-3.092-7.185-5.309c0-1.273,0.364-2.365,0.971-3.261c0.281,2.904,3.123,5.687,9.087,5.687
		c3.534,0,6.303-1.906,6.303-4.341c0-0.453-0.056-0.91-0.168-1.361c0.686-0.697,1.08-1.545,1.08-2.471
		c0-3.422-3.717-5.27-7.215-5.27c-1.004,0-1.95,0.104-2.827,0.305c1.424-1.15,3.441-1.282,4.284-1.282
		c2.01,0,3.069,1.087,3.127,1.146c0.354,0.388,0.956,0.416,1.35,0.063c0.393-0.354,0.422-0.961,0.066-1.354
		C20.314,1.7,18.744,0,15.837,0c-3.765,0-6.463,1.694-7.391,4.47C7.27,5.231,6.375,6.241,5.839,7.436
		c-2.013,1.371-3.434,3.553-3.434,6.476c0,3.416,3.737,7.225,9.101,7.225c0.199,0,0.392-0.002,0.579-0.006l4.167,2.715
		C16.411,23.949,16.593,24,16.775,24c0.158,0,0.314-0.039,0.459-0.117c0.309-0.168,0.5-0.494,0.498-0.848l-0.022-2.967
		c1.065-0.535,1.722-1.207,2.36-1.861l0.34-0.344c0.375-0.373,0.375-0.98,0.002-1.355C20.041,16.133,19.434,16.131,19.059,16.504z
		 M10.095,5.717c1.158-0.583,2.616-0.906,4.284-0.906c2.201,0,5.299,1.039,5.299,3.353c0,0.182-0.037,0.36-0.107,0.531
		c-1.299-1.689-3.828-2.956-8.063-2.956c-0.476,0-0.954,0.033-1.43,0.1C10.083,5.797,10.088,5.757,10.095,5.717z M18.154,9.991
		c-0.766,0.371-1.754,0.598-2.816,0.598c-2.736,0-4.653-1.08-5.182-2.826c0.448-0.071,0.901-0.107,1.35-0.107
		C14.786,7.654,17.113,8.499,18.154,9.991z M7.397,8.729c0.29-0.168,0.595-0.316,0.907-0.445c0.743,2.576,3.384,4.22,7.033,4.22
		c1.272,0,2.445-0.251,3.425-0.687c0.002,0.059,0.002,0.117,0.002,0.178c0,1.292-2.049,2.425-4.386,2.425
		c-4.304,0-7.194-1.709-7.194-4.251C7.186,9.661,7.257,9.18,7.397,8.729z"/>
</g>
</svg>
