<?xml version="1.0" encoding="utf-8"?>
<!-- Generator: Adobe Illustrator 16.0.0, SVG Export Plug-In . SVG Version: 6.00 Build 0)  -->
<!DOCTYPE svg PUBLIC "-//W3C//DTD SVG 1.1//EN" "http://www.w3.org/Graphics/SVG/1.1/DTD/svg11.dtd">
<svg version="1.1" id="Layer_1" xmlns="http://www.w3.org/2000/svg" xmlns:xlink="http://www.w3.org/1999/xlink" x="0px" y="0px"
	 width="24px" height="24px" viewBox="0 0 24 24" enable-background="new 0 0 24 24" xml:space="preserve">
<g>
	<path fill="#FFFFFF" d="M13.008,9.903c0-3.588-2.919-6.508-6.508-6.508s-6.508,2.92-6.508,6.508c0,3.589,2.919,6.509,6.508,6.509
		S13.008,13.49,13.008,9.903z"/>
	<path fill="#FFFFFF" d="M23.971,10.714l-4-9.969c-0.076-0.19-0.246-0.273-0.467-0.313c-0.207,0.001-0.391,0.128-0.463,0.319
		l-4.793,12.368l-0.736-0.555c-0.748,1.963-2.292,3.53-4.239,4.309l5.027,2.521c0.071,0.035,0.147,0.053,0.224,0.053
		c0.121,0,0.24-0.043,0.334-0.127l8.984-8.046C23.998,11.133,24.051,10.909,23.971,10.714z"/>
	<path fill="#FFFFFF" d="M13.865,11.338l2.189-5.664l-0.847-0.846c-0.914-0.912-2.356-0.959-3.339-0.16
		c1.318,1.354,2.136,3.199,2.136,5.233C14.008,10.394,13.956,10.874,13.865,11.338z"/>
	<path fill="#FFFFFF" d="M15.523,20.063c-0.277,0.248-0.633,0.386-1,0.386c-0.229,0-0.459-0.054-0.668-0.154l-6-3.012
		C7.416,17.363,6.963,17.41,6.5,17.41c-0.09,0-0.177-0.01-0.266-0.012l5.441,5.438c0.487,0.486,1.127,0.729,1.769,0.729
		c0.641,0,1.279-0.243,1.768-0.729l7.238-7.235c0.631-0.634,0.848-1.521,0.66-2.33L15.523,20.063z"/>
</g>
</svg>
