<?xml version="1.0" encoding="utf-8"?>
<!-- Generator: Adobe Illustrator 16.0.0, SVG Export Plug-In . SVG Version: 6.00 Build 0)  -->
<!DOCTYPE svg PUBLIC "-//W3C//DTD SVG 1.1//EN" "http://www.w3.org/Graphics/SVG/1.1/DTD/svg11.dtd">
<svg version="1.1" id="Layer_1" xmlns="http://www.w3.org/2000/svg" xmlns:xlink="http://www.w3.org/1999/xlink" x="0px" y="0px"
	 width="24px" height="24px" viewBox="0 0 24 24" enable-background="new 0 0 24 24" xml:space="preserve">
<g>
	<circle fill="#FFFFFF" cx="7" cy="9" r="1"/>
	<circle fill="#FFFFFF" cx="15" cy="7" r="1"/>
	<path fill="#FFFFFF" d="M12,0C5.373,0,0,5.373,0,12s5.373,12,12,12s12-5.373,12-12S18.627,0,12,0z M15,5c1.104,0,2,0.896,2,2
		s-0.896,2-2,2s-2-0.896-2-2S13.896,5,15,5z M7,7c1.103,0,2,0.896,2,2s-0.897,2-2,2s-2-0.896-2-2S5.897,7,7,7z M18.635,16.743
		c-1.16,1.532-2.959,2.601-5.203,3.087c-0.772,0.168-1.526,0.252-2.25,0.252c-1.38,0-2.657-0.303-3.766-0.902
		c-1.701-0.918-2.873-2.506-3.3-4.472c-0.059-0.271,0.112-0.536,0.383-0.595c0.268-0.061,0.535,0.111,0.595,0.382
		c0.369,1.7,1.337,3.017,2.798,3.805c1.479,0.798,3.32,0.991,5.33,0.554c2.006-0.437,3.604-1.375,4.617-2.713
		c1.002-1.324,1.336-2.924,0.967-4.624c-0.059-0.271,0.113-0.536,0.383-0.595c0.269-0.06,0.535,0.113,0.595,0.383
		C20.208,13.271,19.801,15.202,18.635,16.743z"/>
</g>
</svg>
