<?xml version="1.0" encoding="utf-8"?>
<!-- Generator: Adobe Illustrator 16.0.0, SVG Export Plug-In . SVG Version: 6.00 Build 0)  -->
<!DOCTYPE svg PUBLIC "-//W3C//DTD SVG 1.1//EN" "http://www.w3.org/Graphics/SVG/1.1/DTD/svg11.dtd">
<svg version="1.1" id="Layer_1" xmlns="http://www.w3.org/2000/svg" xmlns:xlink="http://www.w3.org/1999/xlink" x="0px" y="0px"
	 width="24px" height="24px" viewBox="0 0 24 24" enable-background="new 0 0 24 24" xml:space="preserve">
<g>
	<path fill="#FFFFFF" d="M17.5,24h-4c-0.275,0-0.5-0.225-0.5-0.5V12H9v11.5C9,23.775,8.776,24,8.5,24h-4C4.224,24,4,23.775,4,23.5
		V12H2.5C2.224,12,2,11.776,2,11.5v-3C2,8.225,2.224,8,2.5,8H4V6.188C4,1.074,6.791,0,9.132,0H12.5C12.775,0,13,0.223,13,0.5v3
		C13,3.776,12.775,4,12.5,4h-1.33C9.284,4,9,4.286,9,6.188V8h4V6.188C13,1.074,15.791,0,18.132,0H21.5C21.775,0,22,0.223,22,0.5v3
		C22,3.776,21.775,4,21.5,4h-1.33C18.283,4,18,4.286,18,6.188V8h2.5C20.775,8,21,8.225,21,8.5v3c0,0.275-0.225,0.5-0.5,0.5H18v11.5
		C18,23.775,17.775,24,17.5,24z"/>
</g>
</svg>
