<?xml version="1.0" encoding="utf-8"?>
<!-- Generator: Adobe Illustrator 16.0.0, SVG Export Plug-In . SVG Version: 6.00 Build 0)  -->
<!DOCTYPE svg PUBLIC "-//W3C//DTD SVG 1.1//EN" "http://www.w3.org/Graphics/SVG/1.1/DTD/svg11.dtd">
<svg version="1.1" id="Layer_1" xmlns="http://www.w3.org/2000/svg" xmlns:xlink="http://www.w3.org/1999/xlink" x="0px" y="0px"
	 width="24px" height="24px" viewBox="0 0 24 24" enable-background="new 0 0 24 24" xml:space="preserve">
<g>
	<path fill="#FFFFFF" d="M8.5,24h-4c-0.161,0-0.312-0.077-0.406-0.207C4,23.662,3.974,23.494,4.026,23.342l1-3
		C5.094,20.139,5.285,20,5.5,20h1c0.124-0.005,0.457-0.311,0.508-0.59L8.167,14H3.5c-0.161,0-0.312-0.077-0.406-0.207
		C3,13.662,2.974,13.494,3.026,13.342l1-3C4.094,10.138,4.285,10,4.5,10h4.524l0.987-4.604C10.757,1.917,12.35,0,14.5,0h6
		c0.161,0,0.313,0.077,0.406,0.207C21,0.338,21.025,0.506,20.975,0.658l-1,3C19.906,3.862,19.715,4,19.5,4H17
		c-0.443,0-0.783,0.54-1.012,1.604L15.047,10H19.5c0.162,0,0.313,0.077,0.406,0.207c0.094,0.131,0.119,0.299,0.068,0.451l-1,3
		C18.906,13.861,18.715,14,18.5,14h-4.311l-1.201,5.604C12.431,22.396,10.793,24,8.5,24z"/>
</g>
</svg>
