<?xml version="1.0" encoding="utf-8"?>
<!-- Generator: Adobe Illustrator 16.0.0, SVG Export Plug-In . SVG Version: 6.00 Build 0)  -->
<!DOCTYPE svg PUBLIC "-//W3C//DTD SVG 1.1//EN" "http://www.w3.org/Graphics/SVG/1.1/DTD/svg11.dtd">
<svg version="1.1" id="Layer_1" xmlns="http://www.w3.org/2000/svg" xmlns:xlink="http://www.w3.org/1999/xlink" x="0px" y="0px"
	 width="29.016px" height="24px" viewBox="0 0 29.016 24" enable-background="new 0 0 29.016 24" xml:space="preserve">
<g>
	<g>
		<path fill="#FFFFFF" d="M8.023,13.816l3.556-3.568c0.021-0.034,0.038-0.071,0.068-0.103c0.029-0.028,0.065-0.047,0.101-0.065
			l8.124-8.151C17.604,0.713,14.904,0,12.001,0C6.855,0,2.347,2.223-0.228,5.563L8.023,13.816z"/>
		<path fill="#FFFFFF" d="M12.725,10.518l9.762,9.762c2.486-2.153,4.021-5.065,4.021-8.278c0-3.899-2.26-7.356-5.745-9.548
			L12.725,10.518z"/>
		<path fill="#FFFFFF" d="M1.55,20.311l5.769-5.787l-8.137-8.134C-1.894,8.064-2.507,9.972-2.507,12
			C-2.507,15.229-0.958,18.152,1.55,20.311z"/>
		<path fill="#FFFFFF" d="M12.018,11.225l-9.679,9.71C4.906,22.834,8.285,24,12.001,24c3.733,0,7.128-1.178,9.698-3.094
			L12.018,11.225z"/>
	</g>
	<path fill="#FFFFFF" d="M1.744,21.738L1.625,21.65l-0.022,0.021l-0.344-0.295l-0.33-0.245c-0.431,0.313-1.034,0.626-1.889,0.781
		c-0.152,0.027-0.285,0.126-0.354,0.265c-0.07,0.142-0.073,0.306-0.005,0.443c0.254,0.528,1.051,0.923,2.369,1.168
		c0.614,0.114,1.396,0.194,2.198,0.194c0.734,0,1.483-0.069,2.142-0.238C4.079,23.229,2.85,22.557,1.744,21.738z"/>
</g>
</svg>
