<?xml version="1.0" encoding="utf-8"?>
<!-- Generator: Adobe Illustrator 16.0.0, SVG Export Plug-In . SVG Version: 6.00 Build 0)  -->
<!DOCTYPE svg PUBLIC "-//W3C//DTD SVG 1.1//EN" "http://www.w3.org/Graphics/SVG/1.1/DTD/svg11.dtd">
<svg version="1.1" id="Layer_1" xmlns="http://www.w3.org/2000/svg" xmlns:xlink="http://www.w3.org/1999/xlink" x="0px" y="0px"
	 width="29px" height="24px" viewBox="0 0 29 24" enable-background="new 0 0 29 24" xml:space="preserve">
<g>
	<path fill="#FFFFFF" d="M11,10.875c-0.433,0-0.799,0.508-0.799,1.109s0.366,1.108,0.799,1.108s0.799-0.508,0.799-1.108
		C11.799,11.383,11.433,10.875,11,10.875z"/>
	<path fill="#FFFFFF" d="M16.5,15h-0.516c-1.315,0-1.547,0.176-1.547,0.547c0,0.137,0,0.454,1.515,0.454
		c1.004,0,1.004-0.347,1.004-0.478c0-0.243-0.093-0.35-0.317-0.543C16.594,14.993,16.548,15,16.5,15z"/>
	<path fill="#FFFFFF" d="M7,10.875c-0.508,0-0.799,0.404-0.799,1.109c0,0.674,0.314,1.108,0.799,1.108s0.799-0.437,0.799-1.108
		C7.799,11.279,7.508,10.875,7,10.875z"/>
	<path fill="#FFFFFF" d="M22.766,11c-0.691,0-1.279,0.451-1.279,0.984c0,0.102,0.006,0.193,0.018,0.278
		c0.037-0.056,0.084-0.104,0.145-0.143l1.592-1.029C23.125,11.039,22.975,11,22.766,11z"/>
	<path fill="#FFFFFF" d="M16.402,12.064c0.078-0.154,0.129-0.313,0.129-0.558c0-0.192-0.496-0.444-0.899-0.479
		c-0.829,0.067-1.101,0.278-1.101,0.765c0,0.098,0.023,0.225,0.217,0.341c0.379,0.228,1.061,0.214,1.516-0.028
		C16.311,12.082,16.355,12.073,16.402,12.064z"/>
	<path fill="#FFFFFF" d="M24.5,6h-25c-1.1,0-2,0.9-2,2v8c0,1.1,0.9,2,2,2h25c1.1,0,2-0.9,2-2V8C26.5,6.9,25.6,6,24.5,6z M4.5,13
		c0,0.143-0.062,0.279-0.168,0.374C4.26,13.438,3.585,14,2.125,14c-1.351,0-2.797-1.199-2.797-2.984c0-1.27,0.883-2.473,2.099-2.861
		C2.476,7.82,3.504,8.178,4.173,9.118c0.16,0.226,0.108,0.537-0.117,0.697c-0.224,0.16-0.537,0.107-0.697-0.116
		C2.798,8.911,2.101,8.99,1.732,9.105c-0.68,0.22-1.403,0.961-1.403,1.91C0.33,12.293,1.393,13,2.126,13
		c0.712,0,1.153-0.16,1.375-0.273V12h-1c-0.276,0-0.5-0.225-0.5-0.5s0.224-0.5,0.5-0.5h1.5c0.276,0,0.5,0.225,0.5,0.5L4.5,13L4.5,13
		z M7,14.094c-1.042,0-1.799-0.887-1.799-2.108c0-1.457,0.904-2.109,1.799-2.109s1.799,0.652,1.799,2.109
		C8.799,13.207,8.042,14.094,7,14.094z M11,14.094c-0.992,0-1.799-0.945-1.799-2.108s0.807-2.11,1.799-2.11s1.799,0.946,1.799,2.109
		C12.799,13.148,11.992,14.094,11,14.094z M17.531,11.508c0,0.639-0.223,1.008-0.399,1.303c-0.147,0.248-0.256,0.429-0.256,0.787
		c0,0.262,0.104,0.36,0.365,0.584c0.302,0.26,0.715,0.611,0.715,1.344c0,0.443-0.194,1.479-2.004,1.479
		c-0.688,0-2.515,0-2.515-1.454c0-1.512,1.583-1.546,2.484-1.547c-0.028-0.12-0.047-0.254-0.047-0.401
		c0-0.132,0.017-0.242,0.028-0.354c-0.15,0.021-0.305,0.053-0.459,0.053c-0.439,0-0.872-0.104-1.21-0.305
		c-0.455-0.272-0.705-0.698-0.705-1.198c0-1.253,0.919-1.624,1.814-1.738c0.061-0.025,0.127-0.04,0.195-0.04
		c0.031,0,0.064,0.007,0.098,0.009c0.283-0.021,0.557-0.023,0.783-0.023h1.08c0.275,0,0.5,0.225,0.5,0.5c0,0.275-0.225,0.5-0.5,0.5
		h-0.102C17.477,11.154,17.531,11.32,17.531,11.508z M19.5,14c0,0.275-0.225,0.5-0.5,0.5s-0.5-0.225-0.5-0.5V9
		c0-0.275,0.225-0.5,0.5-0.5s0.5,0.225,0.5,0.5V14z M24.299,13.492c-0.064,0.053-0.67,0.516-1.814,0.516c-1.271,0-2-0.736-2-2.022
		c0-1.095,1.023-1.984,2.281-1.984c1.08,0,1.574,0.663,1.695,1.056c0.066,0.214-0.018,0.445-0.205,0.567l-2.068,1.338
		c-0.012,0.01-0.021,0.016-0.035,0.021c0.1,0.018,0.209,0.022,0.332,0.022c0.787,0,1.178-0.284,1.191-0.298
		c0.217-0.164,0.53-0.126,0.699,0.089C24.543,13.014,24.512,13.32,24.299,13.492z"/>
</g>
</svg>
