<?xml version="1.0" encoding="utf-8"?>
<!-- Generator: Adobe Illustrator 16.0.0, SVG Export Plug-In . SVG Version: 6.00 Build 0)  -->
<!DOCTYPE svg PUBLIC "-//W3C//DTD SVG 1.1//EN" "http://www.w3.org/Graphics/SVG/1.1/DTD/svg11.dtd">
<svg version="1.1" id="Layer_1" xmlns="http://www.w3.org/2000/svg" xmlns:xlink="http://www.w3.org/1999/xlink" x="0px" y="0px"
	 width="24px" height="24px" viewBox="0 0 24 24" enable-background="new 0 0 24 24" xml:space="preserve">
<g>
	<path fill="#FFFFFF" d="M21.887,10.888h-1.773V8.974c0-0.536-0.454-0.969-0.989-0.969c-0.536,0-0.99,0.433-0.99,0.969v1.915h-2.065
		c-0.534,0-0.969,0.455-0.969,0.99s0.435,0.99,0.969,0.99h2.065v1.924c0,0.535,0.454,0.969,0.99,0.969
		c0.535,0,0.989-0.434,0.989-0.969v-1.924h1.773c0.534,0,0.969-0.455,0.969-0.99C22.854,11.343,22.421,10.888,21.887,10.888z"/>
	<path fill="#FFFFFF" d="M13.752,14.896c-0.023-0.021-0.051-0.043-0.076-0.063c-0.474-0.383-0.969-0.698-1.415-0.979
		c-0.969-0.615-1.564-1.018-1.564-1.506c0-0.258,0.107-0.421,0.473-0.7c1.082-0.621,1.782-1.365,1.83-1.419l0,0
		c0.855-0.868,1.617-2.302,1.617-4.646c0-1.392-0.542-2.614-1.375-3.604h0.89c0.535,0,0.97-0.455,0.97-0.99
		c0-0.535-0.435-0.99-0.97-0.99H8.918c-4.455,0-6.908,2.288-6.908,6.213c0,3.681,2.52,6.213,6.272,6.213
		c0.168,0,0.323,0,0.485-0.017c0.028,0.786,0.378,1.405,0.874,1.897c-0.272-0.013-0.546-0.011-0.814-0.011
		c-6.349,0-7.681,2.649-7.681,4.868c0,3.208,2.589,4.835,7.696,4.835c4.494,0,6.773-1.788,6.773-5.315
		C15.613,16.876,14.747,15.729,13.752,14.896z M3.947,6.338c0-1.784,0.515-4.152,4.969-4.152c1.777,0,3.758,1.438,3.758,3.5
		c0,2.57-1.032,3.275-2.122,4.019c-0.157,0.108-0.323,0.226-0.486,0.348c-0.518,0.277-1.134,0.499-1.786,0.499
		C6.186,10.55,3.947,9.443,3.947,6.338z M8.841,22.064c-5.757,0-5.757-2.103-5.757-2.895c0-0.723,0-2.924,5.742-2.924
		c1.464,0,3.196,0.203,3.855,0.29c0.635,0.571,0.991,1.2,0.991,2.147C13.674,20.355,13.1,22.064,8.841,22.064z"/>
</g>
</svg>
