<?xml version="1.0" encoding="utf-8"?>
<!-- Generator: Adobe Illustrator 16.0.0, SVG Export Plug-In . SVG Version: 6.00 Build 0)  -->
<!DOCTYPE svg PUBLIC "-//W3C//DTD SVG 1.1//EN" "http://www.w3.org/Graphics/SVG/1.1/DTD/svg11.dtd">
<svg version="1.1" id="Layer_1" xmlns="http://www.w3.org/2000/svg" xmlns:xlink="http://www.w3.org/1999/xlink" x="0px" y="0px"
	 width="24px" height="24px" viewBox="0 0 24 24" enable-background="new 0 0 24 24" xml:space="preserve">
<g>
	<path fill="#FFFFFF" d="M22.73,19.05c-0.51,0-1.123,0.211-1.771,0.435c-0.681,0.233-1.451,0.5-2.084,0.5
		c-1.399,0-2.157-0.848-2.959-1.743c-0.194-0.218-0.385-0.431-0.58-0.625c-0.214-0.216-0.448-0.502-0.707-0.818
		c0.321-1.651-0.116-3.889-1.198-6.052c-1.5-3.003-3.885-4.071-5.18-4.443c0.684-0.848,1.691-2.43,1.691-4.396
		c0-1.268-0.684-1.938-1.979-1.938c-0.84,0-1.346,0.889-1.649,1.898c-0.36-1.002-0.928-1.898-1.81-1.898
		c-1.167,0-2.416,0.979-2.416,2.438c0,1.532,1.088,3.028,1.774,3.819c-1.368,0.53-3.879,1.709-3.879,3.222
		c0,1.17,1.235,1.584,2.292,1.584c1.382,0,2.721-1.277,3.288-1.896c0.2,0.175,0.44,0.524,0.44,1.201
		c0,0.346-0.313,1.366-1.705,1.532c-2.864,0.341-4.316,1.197-4.316,2.554c0,0.966,0.526,1.452,1.563,1.452
		c0.555,0,0.884-0.225,1.062-0.414c0.123-0.129,0.206-0.271,0.261-0.41c0.411,0.047,0.902,0.014,1.386-0.066
		c-0.668,0.713-1.229,1.627-1.229,2.695c0,0.568,0.059,1.103,0.175,1.592C1.865,19.665,1,20.504,1,21.458
		c0,1.778,1.566,2.574,5.078,2.574c0.992,0,1.892-0.144,2.674-0.425c1.421,0.285,3.114,0.425,5.169,0.425
		c6.317,0,10.095-1.771,10.095-3.484C24.018,19.195,23.117,19.05,22.73,19.05z"/>
</g>
</svg>
