<?xml version="1.0" encoding="utf-8"?>
<!-- Generator: Adobe Illustrator 16.0.0, SVG Export Plug-In . SVG Version: 6.00 Build 0)  -->
<!DOCTYPE svg PUBLIC "-//W3C//DTD SVG 1.1//EN" "http://www.w3.org/Graphics/SVG/1.1/DTD/svg11.dtd">
<svg version="1.1" id="Layer_1" xmlns="http://www.w3.org/2000/svg" xmlns:xlink="http://www.w3.org/1999/xlink" x="0px" y="0px"
	 width="24px" height="24px" viewBox="0 0 24 24" enable-background="new 0 0 24 24" xml:space="preserve">
<g>
	<path fill="#FFFFFF" d="M22.201,6.607c0.816,0.338,1.23,0.848,1.23,1.516c0,1.075,0,2.004-2.007,2.658
		c-0.239,0.078-0.498,0.15-0.764,0.219c-0.021,0.006-0.038,0.01-0.058,0.017c-1.742,0.445-3.865,0.687-4.789,0.778
		c-0.027-0.65-0.24-1.25-0.596-1.747l3.24-3.24C19.02,6.25,20.854,6.049,22.201,6.607z M12.564,14.111
		c-1.203,0-2.178-0.978-2.178-2.178c0-1.201,0.977-2.178,2.178-2.178c1.201,0,2.178,0.977,2.178,2.178
		C14.742,13.134,13.766,14.111,12.564,14.111z M6.002,12.883c0.353-0.027,0.725-0.072,1.117-0.137V16.9
		c0,0.024,0.011,0.047,0.014,0.069c-0.34,0.421-0.724,0.688-1.103,0.851v-4.799C6.031,12.973,6.015,12.93,6.002,12.883z
		 M8.208,12.527c0.356-0.083,0.732-0.187,1.119-0.298c0.052,0.561,0.229,1.085,0.527,1.526c-0.264,0.306-0.925,1.068-1.646,1.925
		V12.527z M12.564,2.701C12.564,1.359,13.913,0,16.488,0c1.514,0,2.217,1.305,2.447,1.864c0.489,1.181,0.395,2.535-0.225,3.151
		L14.45,9.277c-0.535-0.381-1.185-0.609-1.89-0.609V2.701H12.564z M6.604,2.777C6.658,2.25,6.932,1.82,7.418,1.5
		c0.761-0.502,1.684-0.527,2.531-0.072c0.913,0.492,1.525,1.433,1.525,2.341v4.899c0,0.066,0.016,0.129,0.039,0.188
		c-0.289,0.1-0.563,0.228-0.81,0.397c-0.497-0.733-2.23-3.27-3.2-4.238C6.995,4.506,6.518,3.616,6.604,2.777z M0.569,9.263
		c0-1.784,1.396-2.809,3.828-2.809c2.522,0,5.159,3.142,5.517,3.583c-0.221,0.309-0.382,0.657-0.485,1.031
		c-4.335,1.359-6.604,0.663-7.741-0.17C0.842,10.281,0.569,9.529,0.569,9.263z M1.776,14.492c0.184-0.424,0.523-0.766,0.987-1.023
		v3.917c-0.199-0.146-0.382-0.313-0.539-0.495C1.635,16.2,1.455,15.236,1.776,14.492z M4.914,18.057
		c-0.36,0.017-0.716-0.053-1.062-0.154v-4.838c0.337-0.074,0.708-0.123,1.109-0.145c-0.006,0.034-0.02,0.064-0.02,0.104v5.031
		C4.933,18.057,4.923,18.057,4.914,18.057z M10.483,23.545c-0.892,0.485-2.146,0.73-2.999-0.037c-1.917-1.73-1.313-3.468-0.47-4.617
		c0.251-0.344,0.614-0.801,1.017-1.293c0,0,0.001-0.002,0.003-0.003v-0.001c0.96-1.176,2.142-2.545,2.583-3.053
		c0.414,0.311,0.9,0.521,1.433,0.605c0.084,0.91,0.335,3.647,0.448,4.998c0,0.011,0.003,0.02,0.005,0.027c0,0-0.002,0.008,0,0.012
		C12.73,21.619,11.616,22.934,10.483,23.545z M17.82,20.248c-0.189,0.605-0.631,1.052-1.307,1.32
		c-0.793,0.316-1.533,0.303-2.082-0.036c-0.486-0.3-0.795-0.839-0.851-1.478c-0.106-1.31-0.349-3.92-0.438-4.912
		c0.324-0.061,0.627-0.175,0.912-0.32c0.523,0.539,1.846,1.852,3.321,2.967C17.881,18.604,18.051,19.514,17.82,20.248z
		 M21.148,18.502c-0.767,0-1.892-0.657-3.012-1.502c-0.025-0.023-0.054-0.049-0.085-0.066c-1.202-0.914-2.389-2.028-3.114-2.768
		c0.334-0.355,0.582-0.787,0.729-1.266c0.754-0.065,3.138-0.308,5.14-0.813c2.625,0.448,2.627,1.993,2.625,3.112
		C23.432,16.109,22.729,18.502,21.148,18.502z"/>
</g>
</svg>
