<?xml version="1.0" encoding="utf-8"?>
<!-- Generator: Adobe Illustrator 16.0.0, SVG Export Plug-In . SVG Version: 6.00 Build 0)  -->
<!DOCTYPE svg PUBLIC "-//W3C//DTD SVG 1.1//EN" "http://www.w3.org/Graphics/SVG/1.1/DTD/svg11.dtd">
<svg version="1.1" id="Layer_1" xmlns="http://www.w3.org/2000/svg" xmlns:xlink="http://www.w3.org/1999/xlink" x="0px" y="0px"
	 width="24px" height="24px" viewBox="0 0 24 24" enable-background="new 0 0 24 24" xml:space="preserve">
<g>
	<path fill="#FFFFFF" d="M14.063,9H12.5v6h1.563c0.242,0,0.438-0.195,0.438-0.438V9.438C14.5,9.195,14.305,9,14.063,9z"/>
	<path fill="#FFFFFF" d="M19.063,11H17.5v4h1.563c0.242,0,0.438-0.195,0.438-0.438v-3.125C19.5,11.195,19.305,11,19.063,11z"/>
	<path fill="#FFFFFF" d="M22,5H2C1.173,5,0.5,5.673,0.5,6.5v11C0.5,18.327,1.173,19,2,19h20c0.827,0,1.5-0.673,1.5-1.5v-11
		C23.5,5.673,22.827,5,22,5z M4.5,15.563c0,0.276-0.224,0.5-0.5,0.5s-0.5-0.224-0.5-0.5V8.542c0-0.276,0.224-0.5,0.5-0.5
		s0.5,0.224,0.5,0.5V15.563z M10.5,15.5c0,0.275-0.224,0.5-0.5,0.5s-0.5-0.225-0.5-0.5v-3.323l-0.987,3.489
		C8.453,15.881,8.257,16,8.034,16c0,0-0.001,0-0.002,0c-0.222,0-0.418-0.115-0.48-0.33l-1.059-3.615L6.75,15.49
		c0,0.277-0.25,0.506-0.25,0.506l-1,0.002c0,0-0.25-0.223-0.25-0.498l0.109-6.958c0-0.249,0.244-0.461,0.491-0.496
		C6.094,8.012,6.363,8.162,6.433,8.4l1.573,5.344L9.51,8.406c0.067-0.242,0.302-0.396,0.554-0.361
		C10.312,8.08,10.5,8.291,10.5,8.541V15.5L10.5,15.5z M15.5,14.563c0,0.793-0.646,1.438-1.438,1.438h-2.063
		c-0.276,0-0.5-0.224-0.5-0.5v-7c0-0.274,0.224-0.5,0.5-0.5h2.063c0.791,0,1.438,0.646,1.438,1.438V14.563z M20.5,14.563
		c0,0.793-0.646,1.438-1.438,1.438h-2.063c-0.276,0-0.5-0.224-0.5-0.5v-5V8.542c0-0.276,0.224-0.5,0.5-0.5s0.5,0.224,0.5,0.5V10
		h1.563c0.791,0,1.438,0.645,1.438,1.438V14.563z"/>
</g>
</svg>
