<?xml version="1.0" encoding="utf-8"?>
<!-- Generator: Adobe Illustrator 16.0.0, SVG Export Plug-In . SVG Version: 6.00 Build 0)  -->
<!DOCTYPE svg PUBLIC "-//W3C//DTD SVG 1.1//EN" "http://www.w3.org/Graphics/SVG/1.1/DTD/svg11.dtd">
<svg version="1.1" id="Layer_1" xmlns="http://www.w3.org/2000/svg" xmlns:xlink="http://www.w3.org/1999/xlink" x="0px" y="0px"
	 width="24px" height="24px" viewBox="0 0 24 24" enable-background="new 0 0 24 24" xml:space="preserve">
<g>
	<path fill="#FFFFFF" d="M7,7h1.69C9.64,6.369,10.777,6,12,6c1.223,0,2.359,0.369,3.311,1H24V3.5C24,1.57,22.43,0,20.5,0H7V7z
		 M17,2.5C17,2.225,17.225,2,17.5,2h3C20.775,2,21,2.225,21,2.5v3C21,5.775,20.775,6,20.5,6h-3C17.225,6,17,5.775,17,5.5V2.5z"/>
	<circle fill="#FFFFFF" cx="12" cy="12" r="2.25"/>
	<rect x="18" y="3" fill="#FFFFFF" width="2" height="2"/>
	<path fill="#FFFFFF" d="M16.459,8C17.414,9.063,18,10.463,18,12c0,3.309-2.691,6-6,6c-3.309,0-6-2.691-6-6
		c0-1.537,0.586-2.938,1.541-4H6.5h-3H0v12.5C0,22.43,1.57,24,3.5,24h17c1.93,0,3.5-1.57,3.5-3.5V8H16.459z"/>
	<rect x="4" fill="#FFFFFF" width="2" height="7"/>
	<path fill="#FFFFFF" d="M12,17c2.757,0,5-2.242,5-5c0-2.757-2.243-5-5-5s-5,2.243-5,5C7,14.758,9.243,17,12,17z M12,8.75
		c1.792,0,3.25,1.458,3.25,3.25s-1.458,3.25-3.25,3.25S8.75,13.792,8.75,12S10.208,8.75,12,8.75z"/>
	<path fill="#FFFFFF" d="M3,7V0.051C1.309,0.296,0,1.742,0,3.5V7H3z"/>
</g>
</svg>
