<?xml version="1.0" encoding="utf-8"?>
<!-- Generator: Adobe Illustrator 16.0.0, SVG Export Plug-In . SVG Version: 6.00 Build 0)  -->
<!DOCTYPE svg PUBLIC "-//W3C//DTD SVG 1.1//EN" "http://www.w3.org/Graphics/SVG/1.1/DTD/svg11.dtd">
<svg version="1.1" id="Layer_1" xmlns="http://www.w3.org/2000/svg" xmlns:xlink="http://www.w3.org/1999/xlink" x="0px" y="0px"
	 width="24px" height="24px" viewBox="0 0 24 24" enable-background="new 0 0 24 24" xml:space="preserve">
<g>
	<path fill="#FFFFFF" d="M19.174,19.189c-1.813,0-3.43-1.121-4.223-2.924l-3.317-6.955c-0.898-1.57-2.63-2.586-4.49-2.586
		c-2.875,0-5.213,2.365-5.213,5.272c0,2.908,2.338,5.272,5.213,5.272c1.733,0,3.348-0.867,4.32-2.32
		c0.293-0.439,0.889-0.559,1.33-0.266c0.44,0.295,0.56,0.892,0.265,1.332C11.73,18,9.519,19.188,7.145,19.188
		c-3.932,0-7.131-3.228-7.131-7.19S3.212,4.81,7.144,4.81c2.547,0,4.918,1.385,6.188,3.615l3.361,7.043
		c0.391,0.888,1.236,1.806,2.479,1.806c1.611,0,2.922-1.258,2.922-2.803c0-1.013-0.834-1.386-2.732-1.997
		c-1.707-0.55-4.045-1.208-4.045-3.706c0-2.202,1.658-3.769,3.855-3.769h0.002c1.502,0,2.959,0.769,3.623,2.054
		c0.244,0.47,0.063,1.002-0.41,1.245c-0.47,0.244-1.137,0.273-1.381-0.195c-0.338-0.654-1.011-0.916-2.011-0.916v0.01
		c-1,0-1.851,0.566-1.851,1.711c0,0.996,0.871,1.25,2.758,1.856c1.715,0.552,4.086,1.249,4.086,3.767
		C23.991,17.132,21.842,19.189,19.174,19.189z"/>
</g>
</svg>
