<?xml version="1.0" encoding="utf-8"?>
<!-- Generator: Adobe Illustrator 16.0.0, SVG Export Plug-In . SVG Version: 6.00 Build 0)  -->
<!DOCTYPE svg PUBLIC "-//W3C//DTD SVG 1.1//EN" "http://www.w3.org/Graphics/SVG/1.1/DTD/svg11.dtd">
<svg version="1.1" id="Layer_1" xmlns="http://www.w3.org/2000/svg" xmlns:xlink="http://www.w3.org/1999/xlink" x="0px" y="0px"
	 width="24px" height="24px" viewBox="0 0 24 24" enable-background="new 0 0 24 24" xml:space="preserve">
<g>
	<path fill="#FFFFFF" d="M7.359,8.483H1.867c-0.967,0-1.754,0.786-1.754,1.753V20.73c0,0.967,0.787,1.752,1.754,1.752h5.492
		c0.967,0,1.754-0.785,1.754-1.752V10.236C9.113,9.27,8.326,8.483,7.359,8.483z"/>
	<path fill="#FFFFFF" d="M23.887,11.036c0-1.588-2.131-2.553-3.066-2.553h-4.213c0.715-3.115-0.149-4.893-0.758-5.697
		c-0.602-0.795-1.432-1.27-2.221-1.27c-0.613,0-1.141,0.289-1.443,0.796c-0.046,0.077-0.071,0.167-0.071,0.257v2.686
		c-0.605,1.746-1.196,3.111-2,4.145v11.979c0.189,0.063,0.371,0.105,0.52,0.105h9.227c0.435,0,0.856-0.226,1.229-0.648
		c0.517-0.592,0.861-1.504,0.874-2.252c0.748-0.563,1.104-1.588,1.038-3c0.806-0.836,0.755-2.023,0.493-2.756
		C23.825,12.358,23.887,11.561,23.887,11.036z"/>
</g>
</svg>
