<?xml version="1.0" encoding="utf-8"?>
<!-- Generator: Adobe Illustrator 16.0.0, SVG Export Plug-In . SVG Version: 6.00 Build 0)  -->
<!DOCTYPE svg PUBLIC "-//W3C//DTD SVG 1.1//EN" "http://www.w3.org/Graphics/SVG/1.1/DTD/svg11.dtd">
<svg version="1.1" id="Layer_1" xmlns="http://www.w3.org/2000/svg" xmlns:xlink="http://www.w3.org/1999/xlink" x="0px" y="0px"
	 width="24px" height="24px" viewBox="0 0 24 24" enable-background="new 0 0 24 24" xml:space="preserve">
<g>
	<path fill="#FFFFFF" d="M6.82,10.499h-6c-0.276,0-0.5,0.225-0.5,0.5v10c0,0.274,0.224,0.5,0.5,0.5h6c0.276,0,0.5-0.226,0.5-0.5v-10
		C7.32,10.723,7.096,10.499,6.82,10.499z"/>
	<path fill="#FFFFFF" d="M18.32,12.499c-0.275,0-0.5-0.225-0.5-0.5s0.225-0.5,0.5-0.5h5.277c0.073-0.298,0.082-0.588,0.082-0.752
		c0-2.248-1.843-2.248-2.628-2.248h-4.769c0.806-3.488-0.162-5.297-1.395-5.83c-0.926-0.398-1.975-0.066-2.498,0.793
		c-0.047,0.078-0.073,0.168-0.073,0.26v2.38c0,0.175-0.075,0.388-0.147,0.595c-0.488,1.396-1.456,2.65-2.958,3.834
		c-0.114,0.088-0.22,0.191-0.313,0.306c-0.15,0.181-0.354,0.326-0.582,0.438v9.28c0.271,0.067,0.523,0.2,0.729,0.399
		c0.37,0.354,0.859,0.545,1.415,0.545h8.188c1.103,0,2.033-0.431,2.623-1.207c0.396-0.521,0.6-1.176,0.598-1.793H18.32
		c-0.275,0-0.5-0.226-0.5-0.5s0.225-0.5,0.5-0.5h4.354c0.078-0.127,0.146-0.263,0.201-0.404c0.191-0.504,0.229-1.077,0.133-1.596
		H18.32c-0.275,0-0.5-0.226-0.5-0.5s0.225-0.5,0.5-0.5h5.043c0.188-0.396,0.285-0.851,0.238-1.319
		c-0.022-0.248-0.093-0.472-0.182-0.68L18.32,12.499L18.32,12.499z"/>
</g>
</svg>
