<?xml version="1.0" encoding="utf-8"?>
<!-- Generator: Adobe Illustrator 16.0.0, SVG Export Plug-In . SVG Version: 6.00 Build 0)  -->
<!DOCTYPE svg PUBLIC "-//W3C//DTD SVG 1.1//EN" "http://www.w3.org/Graphics/SVG/1.1/DTD/svg11.dtd">
<svg version="1.1" id="Layer_1" xmlns="http://www.w3.org/2000/svg" xmlns:xlink="http://www.w3.org/1999/xlink" x="0px" y="0px"
	 width="24px" height="24px" viewBox="0 0 24 24" enable-background="new 0 0 24 24" xml:space="preserve">
<g>
	<path fill="#FFFFFF" d="M5.5,8.014h-5c-0.276,0-0.5,0.225-0.5,0.5v15c0,0.275,0.224,0.5,0.5,0.5h5c0.276,0,0.5-0.225,0.5-0.5v-15
		C6,8.239,5.776,8.014,5.5,8.014z"/>
	<path fill="#FFFFFF" d="M3.206-0.015C1.438-0.015,0,1.442,0,3.231c0,1.791,1.438,3.248,3.206,3.248s3.206-1.457,3.206-3.248
		C6.412,1.441,4.974-0.015,3.206-0.015z"/>
	<path fill="#FFFFFF" d="M18,7.909c-2.438,0-4.098,0.602-5,1.051V8.515c0-0.276-0.225-0.5-0.5-0.5h-4c-0.276,0-0.5,0.224-0.5,0.5v15
		c0,0.274,0.224,0.5,0.5,0.5h4c0.275,0,0.5-0.226,0.5-0.5v-8.238c0-1.285,1.32-2.246,2.5-2.246s2.5,0.961,2.5,2.246v8.238
		c0,0.274,0.225,0.5,0.5,0.5h5c0.275,0,0.5-0.226,0.5-0.5v-9.611C24,10.598,21.309,7.909,18,7.909z"/>
</g>
</svg>
