<?xml version="1.0" encoding="utf-8"?>
<!-- Generator: Adobe Illustrator 16.0.0, SVG Export Plug-In . SVG Version: 6.00 Build 0)  -->
<!DOCTYPE svg PUBLIC "-//W3C//DTD SVG 1.1//EN" "http://www.w3.org/Graphics/SVG/1.1/DTD/svg11.dtd">
<svg version="1.1" id="Layer_1" xmlns="http://www.w3.org/2000/svg" xmlns:xlink="http://www.w3.org/1999/xlink" x="0px" y="0px"
	 width="24px" height="24px" viewBox="0 0 24 24" enable-background="new 0 0 24 24" xml:space="preserve">
<g>
	<path fill="#FFFFFF" d="M16.5,9.999c-2.486,0-3.674,0.922-3.688,0.931c-0.148,0.119-0.355,0.145-0.528,0.062
		C12.111,10.907,12,10.733,12,10.542V10h-2v10h2v-5.5c0-1.379,1.122-2.5,2.5-2.5s2.5,1.121,2.5,2.5V20h3v-6.5
		C20,11.57,18.43,9.999,16.5,9.999z"/>
	<circle fill="#FFFFFF" cx="5.5" cy="5" r="1.5"/>
	<rect x="4" y="10" fill="#FFFFFF" width="3" height="10"/>
	<path fill="#FFFFFF" d="M22.5,0h-21C0.673,0,0,0.673,0,1.5v21C0,23.327,0.673,24,1.5,24h21c0.827,0,1.5-0.673,1.5-1.5v-21
		C24,0.673,23.327,0,22.5,0z M8,20.5C8,20.775,7.776,21,7.5,21h-4C3.224,21,3,20.775,3,20.5v-11C3,9.225,3.224,9,3.5,9h4
		C7.776,9,8,9.225,8,9.5V20.5z M5.5,7.5C4.122,7.5,3,6.379,3,5s1.122-2.5,2.5-2.5S8,3.621,8,5S6.878,7.5,5.5,7.5z M21,20.5
		c0,0.275-0.225,0.5-0.5,0.5h-4c-0.275,0-0.5-0.225-0.5-0.5v-6c0-0.827-0.673-1.5-1.5-1.5S13,13.673,13,14.5v6
		c0,0.275-0.225,0.5-0.5,0.5h-3C9.224,21,9,20.775,9,20.5v-11C9,9.225,9.224,9,9.5,9h3C12.775,9,13,9.225,13,9.5v0.182
		c0.7-0.319,1.855-0.683,3.5-0.683c2.48,0,4.5,2.021,4.5,4.501V20.5z"/>
</g>
</svg>
