<?xml version="1.0" encoding="utf-8"?>
<!-- Generator: Adobe Illustrator 16.0.0, SVG Export Plug-In . SVG Version: 6.00 Build 0)  -->
<!DOCTYPE svg PUBLIC "-//W3C//DTD SVG 1.1//EN" "http://www.w3.org/Graphics/SVG/1.1/DTD/svg11.dtd">
<svg version="1.1" id="Layer_1" xmlns="http://www.w3.org/2000/svg" xmlns:xlink="http://www.w3.org/1999/xlink" x="0px" y="0px"
	 width="24px" height="24px" viewBox="0 0 24 24" enable-background="new 0 0 24 24" xml:space="preserve">
<g>
	<path fill="#FFFFFF" d="M4.842,4.567c-1.298,1.017-1.643,2.217-1.69,3.08l4.864,6.251l1.158-3.311l-4.25-5.846
		C4.883,4.69,4.857,4.628,4.842,4.567z"/>
	<path fill="#FFFFFF" d="M5.732,4.155l4.254,5.852h4.252l-0.016-0.082c-0.015-0.082-0.048-0.159-0.099-0.225L9.1,3.237
		c-0.855-0.08-2.104,0.012-3.489,0.809C5.656,4.077,5.699,4.11,5.732,4.155z"/>
	<path fill="#FFFFFF" d="M1.337,5.313l0.988,1.271C2.583,5.586,3.2,4.454,4.574,3.516c1.38-0.94,2.688-1.25,3.735-1.295L7.125,0.7
		C7.088,0.652,7.043,0.612,6.992,0.58C6.929,0.542,6.349,0.203,5.437,0.203c-0.829,0-1.654,0.276-2.451,0.819
		C0.771,2.536,1.22,4.998,1.24,5.102C1.256,5.178,1.289,5.251,1.337,5.313z"/>
	<path fill="#FFFFFF" d="M14.732,16.506c0.006,0,0.014,0,0.02,0c0.275,0,0.5-0.225,0.5-0.5c0-0.076-0.018-0.15-0.049-0.217
		l-0.797-4.783h-4.319l-1.246,3.563l5.733,1.912C14.626,16.498,14.68,16.506,14.732,16.506z"/>
	<path fill="#FFFFFF" d="M20.684,8.592c0.082-1.398-0.311-2.609-1.104-3.414c-1.74-1.76-4.991-1.712-7.744-0.053l0.622,0.799
		c2.338-1.375,5.009-1.463,6.412-0.043c0.591,0.6,0.881,1.541,0.813,2.65c-0.123,2.117-1.442,4.486-3.586,6.541l0.074,0.451
		c0.053,0.153,0.08,0.317,0.08,0.479c0,0.104-0.012,0.203-0.029,0.302C18.873,13.971,20.533,11.139,20.684,8.592z"/>
	<path fill="#FFFFFF" d="M21.538,2.17c-2.237-1.932-7.673-1.438-11.313,0.883l0.064,0.083l0.551,0.708
		c3.48-2.201,8.311-2.412,10.044-0.918c1.097,0.947,1.798,2.79,1.876,4.932c0.121,3.271-1.145,6.558-3.382,8.794
		c-8.285,8.285-13.505,6.217-15.364,4.94c-0.886-0.606-1.164-1.729-1.241-2.561c-0.208-2.252,0.752-5.271,2.232-7.376L4.36,10.829
		c-1.725,2.312-2.823,5.703-2.583,8.296c0.139,1.5,0.716,2.639,1.671,3.293c0.883,0.605,2.438,1.379,4.621,1.379
		c2.923,0,6.968-1.391,12.016-6.438c2.433-2.433,3.806-5.998,3.675-9.54C23.669,5.37,22.859,3.311,21.538,2.17z"/>
	<path fill="#FFFFFF" d="M3.011,9.094c-2.527,3.188-2.769,6.719-2.778,6.885c-0.016,0.272,0.194,0.51,0.47,0.524
		c0.01,0,0.02,0.002,0.03,0.002c0.262,0,0.482-0.205,0.499-0.471c0.002-0.037,0.222-3.229,2.412-6.129L3.011,9.094z"/>
</g>
</svg>
