<?xml version="1.0" encoding="utf-8"?>
<!-- Generator: Adobe Illustrator 16.0.0, SVG Export Plug-In . SVG Version: 6.00 Build 0)  -->
<!DOCTYPE svg PUBLIC "-//W3C//DTD SVG 1.1//EN" "http://www.w3.org/Graphics/SVG/1.1/DTD/svg11.dtd">
<svg version="1.1" id="Layer_1" xmlns="http://www.w3.org/2000/svg" xmlns:xlink="http://www.w3.org/1999/xlink" x="0px" y="0px"
	 width="29.596px" height="24px" viewBox="0 0 29.596 24" enable-background="new 0 0 29.596 24" xml:space="preserve">
<g>
	<path fill="#FFFFFF" d="M25.91,15.945h-4.139l-1.354-4.167c-0.134-0.408-0.81-0.408-0.942,0l-1.354,4.167h-4.38
		c-0.218,0-0.41,0.143-0.474,0.35c-0.065,0.208,0.014,0.436,0.19,0.559l3.528,2.427l-1.346,4.007
		c-0.067,0.203,0.002,0.43,0.177,0.558c0.172,0.13,0.41,0.13,0.584,0.003l3.542-2.556l3.546,2.612
		c0.088,0.063,0.19,0.098,0.295,0.098c0.104,0,0.203-0.031,0.29-0.096c0.175-0.126,0.248-0.352,0.181-0.557l-1.352-4.089
		l3.303-2.417c0.174-0.126,0.245-0.351,0.179-0.555C26.315,16.086,26.125,15.945,25.91,15.945z"/>
	<path fill="#FFFFFF" d="M26.557,14.146L20.479,0.298c-0.079-0.176-0.249-0.293-0.44-0.297c-0.183-0.011-0.37,0.103-0.457,0.272
		L14.189,10.99H-2.175c-0.214,0-0.403,0.139-0.471,0.342s0.004,0.427,0.177,0.555L12.527,22.98c0.086,0.063,0.188,0.097,0.295,0.097
		c0.026,0,0.052-0.002,0.077-0.007c0.132-0.021,0.25-0.094,0.326-0.2l2.137-2.991c0.156-0.221,0.108-0.525-0.11-0.688l-5.769-4.233
		h7.453c0.195,0,0.377-0.117,0.455-0.3l2.554-5.97l2.736,5.981c0.08,0.177,0.256,0.288,0.45,0.288h3.025c0.002,0,0.006,0,0.008,0
		c0.274,0.011,0.507-0.219,0.507-0.496C26.667,14.341,26.626,14.23,26.557,14.146z"/>
</g>
</svg>
