<?xml version="1.0" encoding="utf-8"?>
<!-- Generator: Adobe Illustrator 16.0.0, SVG Export Plug-In . SVG Version: 6.00 Build 0)  -->
<!DOCTYPE svg PUBLIC "-//W3C//DTD SVG 1.1//EN" "http://www.w3.org/Graphics/SVG/1.1/DTD/svg11.dtd">
<svg version="1.1" id="Layer_1" xmlns="http://www.w3.org/2000/svg" xmlns:xlink="http://www.w3.org/1999/xlink" x="0px" y="0px"
	 width="24px" height="24px" viewBox="0 0 24 24" enable-background="new 0 0 24 24" xml:space="preserve">
<g>
	<path fill="#FFFFFF" d="M11.998,5.633c-0.884,0-1.737,0.137-2.545,0.377l2.412,9.104c0.071,0.268-0.088,0.541-0.355,0.611
		c-0.043,0.012-0.086,0.018-0.128,0.018c-0.221,0-0.423-0.148-0.483-0.373L8.508,6.344c-3.279,1.394-5.59,4.684-5.59,8.514
		c0,5.086,4.074,9.223,9.081,9.223c5.008,0,9.083-4.137,9.083-9.223C21.082,9.771,17.006,5.633,11.998,5.633z M9.087,15.967
		c0.207-0.184,0.523-0.164,0.706,0.041c0.626,0.707,1.479,0.959,2.175,0.641c0.731-0.334,1.084-1.18,0.939-2.256
		c-0.037-0.272,0.155-0.524,0.43-0.563c0.276-0.035,0.524,0.155,0.562,0.432c0.203,1.515-0.377,2.777-1.516,3.3
		c-0.337,0.151-0.692,0.229-1.05,0.229c-0.817,0-1.646-0.389-2.288-1.113C8.86,16.465,8.88,16.148,9.087,15.967z M8.018,18.063
		c0.136-0.237,0.439-0.326,0.681-0.188c1.817,1.021,3.473,1.153,4.667,0.373c1.116-0.736,1.704-2.226,1.53-3.886
		c-0.028-0.274,0.17-0.521,0.444-0.549c0.285-0.026,0.521,0.17,0.55,0.443c0.213,2.035-0.545,3.883-1.978,4.824
		c-0.681,0.449-1.465,0.672-2.316,0.672c-1.047,0-2.198-0.338-3.389-1.008C7.966,18.609,7.881,18.305,8.018,18.063z M14.658,21.096
		c-0.934,0.492-1.969,0.734-3,0.734c-1.265,0-2.523-0.365-3.58-1.088c-0.228-0.156-0.286-0.467-0.13-0.695
		c0.156-0.229,0.467-0.287,0.695-0.131c1.591,1.088,3.821,1.207,5.548,0.295c1.742-0.92,2.701-2.66,2.701-4.9
		c0-0.274,0.225-0.5,0.5-0.5c0.274,0,0.5,0.226,0.5,0.5C17.893,17.902,16.713,20.012,14.658,21.096z"/>
	<path fill="#FFFFFF" d="M8.237,5.327l0.358-0.105l0.583-0.248L7.937,0.291C7.866,0.024,7.593-0.135,7.326-0.064
		C7.059,0.006,6.9,0.281,6.971,0.546L8.237,5.327z"/>
</g>
</svg>
