<?xml version="1.0" encoding="utf-8"?>
<!-- Generator: Adobe Illustrator 16.0.0, SVG Export Plug-In . SVG Version: 6.00 Build 0)  -->
<!DOCTYPE svg PUBLIC "-//W3C//DTD SVG 1.1//EN" "http://www.w3.org/Graphics/SVG/1.1/DTD/svg11.dtd">
<svg version="1.1" id="Layer_1" xmlns="http://www.w3.org/2000/svg" xmlns:xlink="http://www.w3.org/1999/xlink" x="0px" y="0px"
	 width="24px" height="24px" viewBox="0 0 24 24" enable-background="new 0 0 24 24" xml:space="preserve">
<g>
	<path fill="#FFFFFF" d="M18,0c-2.209,0-4,1.791-4,4s1.791,4,4,4s4-1.791,4-4S20.209,0,18,0L18,0z"/>
	<path fill="#FFFFFF" d="M23.5,24h-12c-0.276,0-0.5-0.225-0.5-0.5V19H5.5C5.225,19,5,18.775,5,18.5V15H0.5C0.225,15,0,14.775,0,14.5
		v-4.211c0-2.057,2.044-3.33,3.938-3.33c1.375,0,2.719,0.65,3.455,1.633c0.766-0.43,1.627-0.654,2.52-0.654
		c1.588,0,3.103,0.721,4.063,1.904C14.982,9.29,16.15,9,17.381,9C21.092,9,24,11.553,24,14.813v8.688C24,23.775,23.775,24,23.5,24z"
		/>
	<path fill="#FFFFFF" d="M10,1C8.343,1,7,2.344,7,4s1.343,3,3,3s3-1.344,3-3S11.658,1,10,1L10,1z"/>
	<path fill="#FFFFFF" d="M4,2C2.896,2,2,2.896,2,4s0.896,2,2,2s2-0.896,2-2S5.104,2,4,2L4,2z"/>
</g>
</svg>
