<?xml version="1.0" encoding="utf-8"?>
<!-- Generator: Adobe Illustrator 16.0.0, SVG Export Plug-In . SVG Version: 6.00 Build 0)  -->
<!DOCTYPE svg PUBLIC "-//W3C//DTD SVG 1.1//EN" "http://www.w3.org/Graphics/SVG/1.1/DTD/svg11.dtd">
<svg version="1.1" id="Layer_1" xmlns="http://www.w3.org/2000/svg" xmlns:xlink="http://www.w3.org/1999/xlink" x="0px" y="0px"
	 width="24px" height="24px" viewBox="0 0 24 24" enable-background="new 0 0 24 24" xml:space="preserve">
<g>
	<path fill="#FFFFFF" d="M13.051,15.166l2.93-1.953c0.299,0.178,0.645,0.287,1.018,0.287c1.104,0,2-0.896,2-2c0-1.104-0.896-2-2-2
		c-1.089,0-1.977,0.877-1.996,1.963l-2.004,1.336V9.191c0.02-0.01,0.038-0.014,0.055-0.024l2.93-1.953
		c0.3,0.179,0.645,0.287,1.018,0.287c1.104,0,2-0.896,2-2s-0.896-2-2-2c-1.09,0-1.977,0.877-1.996,1.963L12.998,6.8V0h-2v3.799
		L8.994,2.463C8.973,1.377,8.088,0.5,6.998,0.5c-1.103,0-2,0.896-2,2s0.897,2,2,2c0.373,0,0.717-0.109,1.017-0.287l2.929,1.953
		c0.017,0.012,0.037,0.016,0.055,0.025v3.606L8.995,8.462C8.974,7.376,8.088,6.499,6.999,6.499c-1.103,0-2,0.896-2,2
		c0,1.103,0.897,2,2,2c0.373,0,0.718-0.108,1.017-0.287l2.929,1.953c0.017,0.013,0.037,0.017,0.055,0.024v3.607L8.996,14.46
		C8.975,13.375,8.089,12.498,7,12.498c-1.103,0-2,0.896-2,2s0.897,2,2,2c0.373,0,0.718-0.109,1.017-0.287l2.929,1.953
		c0.017,0.012,0.037,0.016,0.055,0.025V24h2v-2.809c0.019-0.01,0.038-0.016,0.056-0.025l2.928-1.953
		c0.301,0.178,0.646,0.287,1.019,0.287c1.104,0,2-0.896,2-2s-0.896-2-2-2c-1.089,0-1.978,0.877-1.996,1.963l-2.004,1.336v-3.607
		C13.014,15.182,13.034,15.178,13.051,15.166z"/>
</g>
</svg>
