<?xml version="1.0" encoding="utf-8"?>
<!-- Generator: Adobe Illustrator 16.0.0, SVG Export Plug-In . SVG Version: 6.00 Build 0)  -->
<!DOCTYPE svg PUBLIC "-//W3C//DTD SVG 1.1//EN" "http://www.w3.org/Graphics/SVG/1.1/DTD/svg11.dtd">
<svg version="1.1" id="Layer_1" xmlns="http://www.w3.org/2000/svg" xmlns:xlink="http://www.w3.org/1999/xlink" x="0px" y="0px"
	 width="28.531px" height="24px" viewBox="0 0 28.531 24" enable-background="new 0 0 28.531 24" xml:space="preserve">
<g>
	<path fill="#FFFFFF" d="M1.266,9.703c-1.947,0-3.531,1.584-3.531,3.531s1.584,3.531,3.531,3.531c1.946,0,3.53-1.584,3.53-3.531
		S3.213,9.703,1.266,9.703z M1.266,14.766c-0.845,0-1.531-0.688-1.531-1.531c0-0.841,0.688-1.529,1.531-1.529
		c0.843,0,1.53,0.688,1.53,1.529C2.797,14.078,2.109,14.766,1.266,14.766z"/>
	<path fill="#FFFFFF" d="M8.766,9.734c-1.542,0-3,1.458-3,3v3.031c0,0.553,0.447,1,1,1c0.552,0,1-0.447,1-1v-3.031
		c0-0.448,0.551-1,1-1c0.552,0,1-0.447,1-1C9.766,10.181,9.317,9.734,8.766,9.734z"/>
	<path fill="#FFFFFF" d="M14.422,9.994c-0.407-0.372-1.041-0.342-1.412,0.068l-0.243,0.27V8.234c0-0.553-0.447-1-1-1s-1,0.447-1,1
		v7.532c0,0.553,0.447,1,1,1c0.47,0,0.845-0.33,0.953-0.768l0.215,0.304c0.194,0.276,0.504,0.425,0.815,0.425
		c0.199,0,0.4-0.062,0.576-0.186c0.451-0.318,0.562-0.941,0.238-1.395l-1.521-2.149l1.442-1.593
		C14.861,10.998,14.83,10.365,14.422,9.994z"/>
	<path fill="#FFFFFF" d="M20.766,10.234c-0.554,0-1,0.447-1,1v2.609c0,0.403-0.541,0.884-1,0.884c-0.504,0-1-0.338-1-0.682v-2.812
		c0-0.553-0.447-1-1-1c-0.554,0-1,0.447-1,1v2.813c0,1.604,1.551,2.681,3,2.681c1.569,0,3-1.373,3-2.883v-2.61
		C21.766,10.682,21.318,10.234,20.766,10.234z"/>
	<path fill="#FFFFFF" d="M25.266,14.484c-0.324,0-0.455-0.068-0.476-0.088c-0.006-0.008-0.024-0.061-0.024-0.162v-2.5h0.5
		c0.553,0,1-0.447,1-1c0-0.553-0.447-1-1-1h-0.5v-1.5c0-0.553-0.447-1-1-1c-0.554,0-1,0.447-1,1v6c0,1.037,0.653,2.25,2.5,2.25
		c0.553,0,1-0.447,1-1S25.818,14.484,25.266,14.484z"/>
</g>
</svg>
