<?xml version="1.0" encoding="utf-8"?>
<!-- Generator: Adobe Illustrator 16.0.0, SVG Export Plug-In . SVG Version: 6.00 Build 0)  -->
<!DOCTYPE svg PUBLIC "-//W3C//DTD SVG 1.1//EN" "http://www.w3.org/Graphics/SVG/1.1/DTD/svg11.dtd">
<svg version="1.1" id="Layer_1" xmlns="http://www.w3.org/2000/svg" xmlns:xlink="http://www.w3.org/1999/xlink" x="0px" y="0px"
	 width="24px" height="24px" viewBox="0 0 24 24" enable-background="new 0 0 24 24" xml:space="preserve">
<g>
	<path fill="#FFFFFF" d="M23,11.998c0,1.381-0.252,2.725-0.75,4H18v-5.5V2.777C21.104,4.8,23,8.26,23,11.998z M7,15.998V10.27
		l5.035-4.529l4.798,4.799l0.168,0.166v5.293L7,15.998L7,15.998z M17,2.199v7.092l-0.625-0.626l-7.271-7.27
		C11.769,0.659,14.602,0.973,17,2.199z M8.042,1.746L8.09,1.794l3.237,3.237L6.263,9.588C6.202,9.623,6.149,9.672,6.107,9.729
		l-4.476,4.028l-0.415,0.374C1.072,13.417,1,12.701,1,11.998C1,7.458,3.817,3.377,8.042,1.746z M1.495,15.227L6,11.171v5.327v4.719
		C3.859,19.816,2.25,17.682,1.495,15.227z M12,22.998c-1.738,0-3.46-0.414-5-1.2v-4.8h10.5h4.301
		C19.93,20.667,16.162,22.998,12,22.998z"/>
</g>
</svg>
