<?xml version="1.0" encoding="utf-8"?>
<!-- Generator: Adobe Illustrator 16.0.0, SVG Export Plug-In . SVG Version: 6.00 Build 0)  -->
<!DOCTYPE svg PUBLIC "-//W3C//DTD SVG 1.1//EN" "http://www.w3.org/Graphics/SVG/1.1/DTD/svg11.dtd">
<svg version="1.1" id="Layer_1" xmlns="http://www.w3.org/2000/svg" xmlns:xlink="http://www.w3.org/1999/xlink" x="0px" y="0px"
	 width="24px" height="24px" viewBox="0 0 24 24" enable-background="new 0 0 24 24" xml:space="preserve">
<g>
	<path fill="#FFFFFF" d="M10.381,8.489c0.663,0,1.223,0.276,1.577,0.78c0.854,1.216,0.171,3.39-0.058,4.026l-0.798,2.623
		c0.544,0.602,1.149,0.602,1.391,0.602c2.301,0,4.987-1.311,4.987-5c0-2.903-1.563-6.03-4.989-6.03c-2.086,0-6.031,1.051-6.031,5.03
		c0,1.551,0.501,2.67,1.375,3.069c0.168,0.078,0.305,0.195,0.404,0.338c-0.052-0.394-0.079-0.801-0.079-1.215
		C8.16,10.61,8.847,8.489,10.381,8.489z"/>
	<path fill="#FFFFFF" d="M12.001-0.042C5.35-0.042-0.041,5.349-0.041,12c0,4.82,2.84,8.968,6.932,10.893l2.027-6.66
		c-0.226-0.442-0.404-0.944-0.531-1.484c-0.015,0.059-0.035,0.113-0.06,0.17c-0.229,0.502-0.824,0.723-1.326,0.492
		c-1.615-0.74-2.542-2.521-2.542-4.89c0-5.158,4.803-7.03,8.031-7.03c4.588,0,6.988,4.04,6.988,8.03c0,4.835-3.508,7-6.986,7
		c-0.743,0-1.425-0.188-2.016-0.547L8.768,23.59c1.03,0.287,2.111,0.451,3.232,0.451c6.65,0,12.042-5.393,12.042-12.041
		C24.042,5.349,18.65-0.042,12.001-0.042z"/>
</g>
</svg>
