<?xml version="1.0" encoding="utf-8"?>
<!-- Generator: Adobe Illustrator 16.0.0, SVG Export Plug-In . SVG Version: 6.00 Build 0)  -->
<!DOCTYPE svg PUBLIC "-//W3C//DTD SVG 1.1//EN" "http://www.w3.org/Graphics/SVG/1.1/DTD/svg11.dtd">
<svg version="1.1" id="Layer_1" xmlns="http://www.w3.org/2000/svg" xmlns:xlink="http://www.w3.org/1999/xlink" x="0px" y="0px"
	 width="24px" height="24px" viewBox="0 0 24 24" enable-background="new 0 0 24 24" xml:space="preserve">
<g>
	<path fill="#FFFFFF" d="M11.999,7.107c2.71,0,5,2.338,5,5.104c0,2.686-2.196,4.787-5,4.787c-0.836,0-1.516,0.674-1.516,1.5
		c0,0.828,0.68,1.5,1.516,1.5c4.59,0,8.039-3.389,8.039-7.885c0-4.461-3.599-8.09-8.02-8.09c-4.422,0-8.02,3.578-8.02,7.976v8.925
		c0.891,0.799,1.899,1.467,3,1.975V12C6.999,9.256,9.195,7.107,11.999,7.107z"/>
	<path fill="#FFFFFF" d="M11.999,0c-6.627,0-12,5.373-12,12c0,3.038,1.138,5.805,3,7.918V12c0-4.948,4.046-8.975,9.02-8.975
		s9.02,4.076,9.02,9.088c0,5.067-3.879,8.887-9.023,8.887c-1.403,0-2.531-1.121-2.531-2.5s1.128-2.5,2.516-2.5
		c2.28,0,4-1.629,4-3.788c0-2.227-1.832-4.105-4-4.105c-2.243,0-4,1.711-4,3.894v11.304c1.253,0.441,2.595,0.695,4,0.695
		c6.627,0,12-5.373,12-12C24.002,5.374,18.626,0,11.999,0z"/>
</g>
</svg>
