<?xml version="1.0" encoding="utf-8"?>
<!-- Generator: Adobe Illustrator 16.0.0, SVG Export Plug-In . SVG Version: 6.00 Build 0)  -->
<!DOCTYPE svg PUBLIC "-//W3C//DTD SVG 1.1//EN" "http://www.w3.org/Graphics/SVG/1.1/DTD/svg11.dtd">
<svg version="1.1" id="Layer_1" xmlns="http://www.w3.org/2000/svg" xmlns:xlink="http://www.w3.org/1999/xlink" x="0px" y="0px"
	 width="24px" height="24px" viewBox="0 0 24 24" enable-background="new 0 0 24 24" xml:space="preserve">
<g>
	<path fill="#FFFFFF" d="M12.031,10.378c0-2.526,1.178-4.742,2.94-5.994c-2.391,0.062-4.326,0.271-5.349,0.457
		C8.106,5.116,5.958,5.663,4.434,7.239c-1.347-0.549-1.773-1.58-1.346-3.22C3.137,3.83,3.073,3.632,2.924,3.507
		c-0.148-0.123-0.355-0.15-0.532-0.068C0.761,4.202,0.033,4.931,0.033,7.231c0,1.229,1.272,2.502,3.018,3.07
		c-0.03,0.577-0.06,1.15-0.06,1.641c0,1.085,0.316,1.705,0.595,2.251c0.25,0.49,0.465,0.912,0.465,1.688
		c0,0.211-0.188,0.683-0.369,1.138c-0.329,0.823-0.738,1.853-0.738,2.871c0,0.204,0.126,0.391,0.318,0.465
		c0.347,0.138,1.125,0.254,1.879,0.254c0.708,0,1.395-0.104,1.687-0.396c0.097-0.097,0.15-0.229,0.146-0.365
		c-0.036-1.455,0.498-2.775,0.773-3.357c0.618,0.104,1.894,0.26,3.257,0.061v3.355c0,0.275,0.224,0.5,0.5,0.5h3
		c0.275,0,0.5-0.225,0.5-0.5v-3.5h0.018C13.234,15.161,12.031,12.93,12.031,10.378z"/>
	<path fill="#FFFFFF" d="M19.007,10.405c0,0.006,0,0.012,0,0.016c0,1.672-1.101,3.031-2.485,3.031c-1.387,0-2.5-1.359-2.5-3.031
		s1.136-3.03,2.521-3.03c1.089,0,2.018,0.845,2.365,2.017h2.129c-0.319-2.576-1.878-4.604-3.842-4.975
		c-2.373,0.576-4.163,3.021-4.163,5.945c0,2.918,1.786,5.36,4.153,5.94c-0.179,0.051-0.179,0.051-0.179,0.051
		c-0.345,0.07-0.687,0.12-1,0.132v2.404c0,0.274,0.224,0.5,0.5,0.5h2.78c0.15,0,0.293-0.067,0.388-0.186
		c0.095-0.114,0.134-0.269,0.103-0.415l-0.692-3.438c1.21-1.076,2.008-2.898,2.017-4.963h-2.095V10.405z"/>
	<path fill="#FFFFFF" d="M17.007,9.405h0.845c-0.263-0.604-0.744-1.016-1.303-1.016c-0.835,0-1.514,0.91-1.514,2.03
		s0.65,2.03,1.484,2.03c0.836,0,1.485-0.91,1.485-2.03c0-0.005,0-0.01,0-0.017h-1c-0.274,0-0.5-0.224-0.5-0.5
		C16.507,9.63,16.73,9.405,17.007,9.405z"/>
	<path fill="#FFFFFF" d="M23.416,10.177c0.053-0.08,0.091-0.17,0.091-0.271c0-0.091-0.03-0.172-0.073-0.245l0.379-0.362
		c0.199-0.19,0.205-0.508,0.015-0.707c-0.19-0.199-0.509-0.205-0.707-0.016l-0.863,0.83h-0.229l-0.02,1h0.188l0.933,0.866
		c0.097,0.09,0.218,0.134,0.34,0.134c0.134,0,0.269-0.055,0.366-0.16c0.188-0.201,0.176-0.518-0.025-0.706L23.416,10.177z"/>
	<path fill="#FFFFFF" d="M8.366,17.405H8.007v1.563c0,0.138,0.056,0.236,0.155,0.332c0.093,0.089,0.217,0.105,0.345,0.105
		c0.008,0,0.016,0,0.024,0l1.476-0.058v-0.692v-0.263v-0.987h-1H8.366z"/>
</g>
</svg>
