<?xml version="1.0" encoding="utf-8"?>
<!-- Generator: Adobe Illustrator 16.0.0, SVG Export Plug-In . SVG Version: 6.00 Build 0)  -->
<!DOCTYPE svg PUBLIC "-//W3C//DTD SVG 1.1//EN" "http://www.w3.org/Graphics/SVG/1.1/DTD/svg11.dtd">
<svg version="1.1" id="Layer_1" xmlns="http://www.w3.org/2000/svg" xmlns:xlink="http://www.w3.org/1999/xlink" x="0px" y="0px"
	 width="24px" height="24px" viewBox="0 0 24 24" enable-background="new 0 0 24 24" xml:space="preserve">
<g>
	<path fill="#FFFFFF" d="M5.736,15.639c-1.47,0-2.666,1.197-2.666,2.666c0,1.473,1.196,2.666,2.666,2.666
		c1.47,0,2.666-1.193,2.666-2.666C8.401,16.836,7.206,15.639,5.736,15.639z"/>
	<path fill="#FFFFFF" d="M9.452,13H1.547C0.694,13,0,13.693,0,14.547v7.906C0,23.307,0.694,24,1.547,24h7.905
		c0.853,0,1.547-0.693,1.547-1.547v-7.906C10.999,13.693,10.305,13,9.452,13z M5.736,21.971c-2.025,0-3.666-1.641-3.666-3.666
		c0-2.022,1.641-3.666,3.666-3.666c2.024,0,3.666,1.644,3.666,3.666C9.401,20.33,7.76,21.971,5.736,21.971z"/>
	<path fill="#FFFFFF" d="M22.452,13h-7.905C13.693,13,13,13.693,13,14.547v7.906C13,23.307,13.693,24,14.547,24h7.905
		c0.853,0,1.547-0.693,1.547-1.547v-7.906C23.999,13.693,23.305,13,22.452,13z M18.305,21.971c-2.023,0-3.666-1.641-3.666-3.666
		c0-2.022,1.641-3.666,3.666-3.666c2.024,0,3.666,1.644,3.666,3.666C21.971,20.33,20.329,21.971,18.305,21.971z"/>
	<path fill="#FFFFFF" d="M18.305,15.639c-1.471,0-2.666,1.197-2.666,2.666c0,1.473,1.195,2.666,2.666,2.666s2.666-1.193,2.666-2.666
		C20.971,16.836,19.773,15.639,18.305,15.639z"/>
	<circle fill="#FFFFFF" cx="18.305" cy="5.736" r="2.666"/>
	<path fill="#FFFFFF" d="M22.452,0h-7.905C13.693,0,13,0.693,13,1.547v7.906C13,10.307,13.693,11,14.547,11h7.905
		c0.853,0,1.547-0.693,1.547-1.547V1.547C23.999,0.693,23.305,0,22.452,0z M18.305,9.402c-2.023,0-3.666-1.642-3.666-3.666
		c0-2.023,1.641-3.666,3.666-3.666c2.024,0,3.666,1.643,3.666,3.666C21.971,7.762,20.329,9.402,18.305,9.402z"/>
	<circle fill="#FFFFFF" cx="5.736" cy="5.736" r="2.666"/>
	<path fill="#FFFFFF" d="M9.452,0H1.547C0.694,0,0,0.693,0,1.547v7.906C0,10.307,0.694,11,1.547,11h7.905
		c0.853,0,1.547-0.693,1.547-1.547V1.547C10.999,0.693,10.305,0,9.452,0z M5.736,9.402c-2.025,0-3.666-1.642-3.666-3.666
		c0-2.023,1.641-3.666,3.666-3.666c2.024,0,3.666,1.643,3.666,3.666C9.401,7.762,7.76,9.402,5.736,9.402z"/>
</g>
</svg>
