<?xml version="1.0" encoding="utf-8"?>
<!-- Generator: Adobe Illustrator 16.0.0, SVG Export Plug-In . SVG Version: 6.00 Build 0)  -->
<!DOCTYPE svg PUBLIC "-//W3C//DTD SVG 1.1//EN" "http://www.w3.org/Graphics/SVG/1.1/DTD/svg11.dtd">
<svg version="1.1" id="Layer_1" xmlns="http://www.w3.org/2000/svg" xmlns:xlink="http://www.w3.org/1999/xlink" x="0px" y="0px"
	 width="27.406px" height="24px" viewBox="0 0 27.406 24" enable-background="new 0 0 27.406 24" xml:space="preserve">
<g>
	<path fill="#FFFFFF" d="M11.985,17.756c-0.724,0-1.538-0.05-2.047-0.642C9.52,16.629,9.4,15.898,9.563,14.818
		c0.395-2.62,0.853-6.095,0.853-6.095c0.033-0.249,0.244-0.436,0.495-0.436c0.116,0,0.251-0.01,0.398-0.018
		c0.199-0.014,0.42-0.025,0.645-0.025c0.538,0,1.313,0.065,1.821,0.646c0.395,0.449,0.537,1.116,0.424,1.982
		c-0.167,1.279-0.383,2.771-0.561,4.004c-0.168,1.162-0.313,2.164-0.332,2.408c-0.021,0.26-0.238,0.459-0.5,0.459L11.985,17.756z"/>
	<path fill="#FFFFFF" d="M12.514,7.517c-0.981,0-1.792-0.567-2.014-1.414c-0.272-1.043,0.474-2.146,1.662-2.457
		c1.184-0.31,2.385,0.301,2.653,1.33c0.136,0.521,0.025,1.066-0.308,1.539c-0.313,0.444-0.796,0.771-1.354,0.918
		C12.943,7.487,12.729,7.517,12.514,7.517z"/>
	<path fill="#FFFFFF" d="M22.245,17.854c-1.793,0-2.612-1.489-3.347-3.03c-0.154,1.063-0.328,2.278-0.342,2.467
		c-0.021,0.26-0.238,0.46-0.5,0.46l-0.822,0.008c-0.727,0-1.539-0.05-2.047-0.642c-0.418-0.485-0.539-1.216-0.375-2.296
		c0.396-2.622,1.332-9.396,1.332-9.396c0.035-0.247,0.246-0.433,0.496-0.433c0.113,0,0.25-0.008,0.396-0.018
		c0.2-0.012,0.419-0.025,0.646-0.025c0.535,0,1.313,0.066,1.82,0.648c0.396,0.449,0.537,1.116,0.424,1.98
		c-0.094,0.721-0.24,1.772-0.404,2.924c0.482-0.59,1.045-1.236,1.438-1.66c0.708-0.758,1.917-0.847,2.767-0.847
		c0.313,0,0.619,0.013,0.896,0.024C25.094,8.039,25.516,8,25.661,8.335c0.08,0.184,0.044,0.395-0.091,0.54
		c-0.109,0.119-2.5,2.707-3.504,3.745c0.834,1.876,1.746,2.612,2.176,2.646c0.273,0.021,0.479,0.258,0.46,0.531
		C24.665,16.352,24.016,17.854,22.245,17.854z"/>
	<path fill="#FFFFFF" d="M7.951,9.04C7.309,8.25,6.333,7.776,5.203,7.707C5.027,7.696,4.847,7.69,4.665,7.69
		c-1.663,0-5.605,0.521-6.3,5.352c-0.209,1.455,0.062,2.644,0.804,3.522c1.115,1.326,2.828,1.416,3.02,1.422
		c0.636,0.021,1.259,0.009,1.875-0.288c-0.084,0.877,0.05,1.521,0.404,1.985c0.51,0.661,1.313,0.752,2.033,0.752l0.733-0.015
		c0.25,0,0.462-0.187,0.496-0.435c0,0,0.531-3.967,0.999-7.188C8.959,11.226,8.697,9.958,7.951,9.04z M5.607,13.335
		C5.474,13.884,5.07,15.55,3.234,15.55l-0.18-0.005c-0.482-0.025-0.885-0.236-1.162-0.609c-0.431-0.578-0.53-1.514-0.275-2.563
		c0.354-1.466,1.524-2.438,2.629-2.198c0.576,0.124,0.998,0.395,1.254,0.803C5.934,11.664,5.786,12.6,5.607,13.335z"/>
</g>
</svg>
