<?xml version="1.0" encoding="utf-8"?>
<!-- Generator: Adobe Illustrator 16.0.0, SVG Export Plug-In . SVG Version: 6.00 Build 0)  -->
<!DOCTYPE svg PUBLIC "-//W3C//DTD SVG 1.1//EN" "http://www.w3.org/Graphics/SVG/1.1/DTD/svg11.dtd">
<svg version="1.1" id="Layer_1" xmlns="http://www.w3.org/2000/svg" xmlns:xlink="http://www.w3.org/1999/xlink" x="0px" y="0px"
	 width="24px" height="24px" viewBox="0 0 24 24" enable-background="new 0 0 24 24" xml:space="preserve">
<g>
	<circle fill="#FFFFFF" cx="15.387" cy="11.685" r="0.632"/>
	<path fill="#FFFFFF" d="M12.906,6.07l1.195-4.061L17.68,2.6c0,0.027-0.008,0.055-0.008,0.082c0,1.262,1.025,2.287,2.288,2.287
		c1.261,0,2.288-1.025,2.288-2.287c0-1.262-1.025-2.287-2.288-2.287c-0.88,0-1.638,0.504-2.021,1.234l-4.111-0.68
		c-0.248-0.041-0.489,0.108-0.561,0.353l-1.396,4.744C6.213,6.104,1.637,9.174,1.637,12.945c0,2.41,1.87,4.533,4.693,5.77
		c-1.235,0.34-2.818,1.551-2.818,3.938v0.453c0,0.275,0.224,0.5,0.5,0.5h2.5V18.79c0.322,0.135,0.656,0.258,1,0.369v4.446h9V19.17
		c0.344-0.109,0.678-0.23,1-0.365v4.801h2.5c0.275,0,0.5-0.225,0.5-0.5v-0.453c0-2.371-1.563-3.582-2.796-3.93
		c2.832-1.234,4.709-3.361,4.709-5.774C22.424,9.336,18.229,6.369,12.906,6.07z M19.959,1.395c0.71,0,1.288,0.578,1.288,1.287
		c0,0.711-0.578,1.288-1.288,1.288c-0.711,0-1.288-0.577-1.288-1.288C18.672,1.973,19.249,1.395,19.959,1.395z M16.07,16.088
		c-0.291,0.184-0.604,0.348-0.922,0.486c-0.979,0.428-2.025,0.645-3.119,0.645c-1.064,0-2.086-0.205-3.039-0.609
		c-0.341-0.146-0.671-0.317-0.98-0.51c-0.234-0.147-0.305-0.457-0.159-0.688c0.146-0.234,0.454-0.308,0.689-0.16
		c0.265,0.166,0.548,0.313,0.842,0.438c1.678,0.716,3.686,0.707,5.364-0.028c0.274-0.119,0.543-0.263,0.795-0.418
		c0.235-0.146,0.543-0.076,0.688,0.157C16.377,15.635,16.305,15.941,16.07,16.088z M6.958,11.685c0-0.899,0.732-1.632,1.633-1.632
		c0.901,0,1.633,0.732,1.633,1.632s-0.732,1.631-1.633,1.631C7.69,13.316,6.958,12.584,6.958,11.685z M15.387,13.316
		c-0.9,0-1.633-0.732-1.633-1.632s0.73-1.632,1.633-1.632s1.633,0.732,1.633,1.632S16.288,13.316,15.387,13.316z"/>
	<circle fill="#FFFFFF" cx="8.591" cy="11.685" r="0.633"/>
	<path fill="#FFFFFF" d="M3.837,7.467C3.581,7.395,3.318,7.344,3.048,7.344c-1.553,0-2.816,1.215-2.816,2.707
		c0,0.595,0.21,1.156,0.568,1.617C1.181,10.051,2.265,8.598,3.837,7.467z"/>
	<path fill="#FFFFFF" d="M20.953,7.344c-0.256,0-0.504,0.045-0.746,0.109c1.561,1.118,2.645,2.555,3.041,4.152
		c0.328-0.447,0.521-0.986,0.521-1.557C23.77,8.559,22.506,7.344,20.953,7.344z"/>
</g>
</svg>
