<?xml version="1.0" encoding="utf-8"?>
<!-- Generator: Adobe Illustrator 16.0.0, SVG Export Plug-In . SVG Version: 6.00 Build 0)  -->
<!DOCTYPE svg PUBLIC "-//W3C//DTD SVG 1.1//EN" "http://www.w3.org/Graphics/SVG/1.1/DTD/svg11.dtd">
<svg version="1.1" id="Layer_1" xmlns="http://www.w3.org/2000/svg" xmlns:xlink="http://www.w3.org/1999/xlink" x="0px" y="0px"
	 width="24px" height="24px" viewBox="0 0 24 24" enable-background="new 0 0 24 24" xml:space="preserve">
<g>
	<path fill="#FFFFFF" d="M19.195,23.479c-0.105,0-0.207-0.031-0.295-0.096l-6.902-5.039l-6.9,5.002
		c-0.175,0.127-0.413,0.127-0.588-0.002c-0.175-0.127-0.248-0.354-0.18-0.56l2.634-8.015L0.068,9.85
		c-0.177-0.125-0.252-0.352-0.186-0.559c0.065-0.207,0.259-0.348,0.476-0.348h8.531l2.636-8.113c0.134-0.412,0.817-0.412,0.951,0
		l2.635,8.113h8.531c0.217,0,0.409,0.141,0.476,0.348c0.065,0.207-0.009,0.434-0.187,0.561l-6.896,4.912l2.635,8.06
		c0.065,0.206-0.007,0.434-0.183,0.561C19.4,23.447,19.297,23.479,19.195,23.479z"/>
</g>
</svg>
