<?xml version="1.0" encoding="utf-8"?>
<!-- Generator: Adobe Illustrator 16.0.0, SVG Export Plug-In . SVG Version: 6.00 Build 0)  -->
<!DOCTYPE svg PUBLIC "-//W3C//DTD SVG 1.1//EN" "http://www.w3.org/Graphics/SVG/1.1/DTD/svg11.dtd">
<svg version="1.1" id="Layer_1" xmlns="http://www.w3.org/2000/svg" xmlns:xlink="http://www.w3.org/1999/xlink" x="0px" y="0px"
	 width="24px" height="24px" viewBox="0 0 24 24" enable-background="new 0 0 24 24" xml:space="preserve">
<g>
	<path fill="#FFFFFF" d="M4.057,15.986c-2.191,0-3.975,1.783-3.975,3.976s1.783,3.976,3.975,3.976s3.975-1.782,3.975-3.976
		C8.032,17.771,6.248,15.986,4.057,15.986z"/>
	<path fill="#FFFFFF" d="M23.896,21.294C23.814,9.771,13.744,0.063,1.831,0.063c-0.276,0-0.5,0.224-0.5,0.5v4.604
		c0,0.275,0.224,0.5,0.5,0.5c9.369,0,16.435,6.779,16.435,15.771c0,0.276,0.226,0.5,0.5,0.5h4.633c0.009,0,0.015,0,0.021,0
		c0.276,0,0.5-0.224,0.5-0.5C23.918,21.389,23.91,21.339,23.896,21.294z"/>
	<path fill="#FFFFFF" d="M1.831,7.909c-0.276,0-0.5,0.224-0.5,0.5v3.679c0,0.274,0.224,0.5,0.5,0.5c5.976,0,9.544,3.311,9.544,8.852
		c0,0.274,0.224,0.5,0.5,0.5h3.648c0.275,0,0.5-0.226,0.5-0.5C16.021,14.355,9.258,7.909,1.831,7.909z"/>
</g>
</svg>
