<?xml version="1.0" encoding="utf-8"?>
<!-- Generator: Adobe Illustrator 16.0.0, SVG Export Plug-In . SVG Version: 6.00 Build 0)  -->
<!DOCTYPE svg PUBLIC "-//W3C//DTD SVG 1.1//EN" "http://www.w3.org/Graphics/SVG/1.1/DTD/svg11.dtd">
<svg version="1.1" id="Layer_1" xmlns="http://www.w3.org/2000/svg" xmlns:xlink="http://www.w3.org/1999/xlink" x="0px" y="0px"
	 width="24px" height="24px" viewBox="0 0 24 24" enable-background="new 0 0 24 24" xml:space="preserve">
<g>
	<path fill="#FFFFFF" d="M18.5,14.5c-0.914,0-1.788,0.279-2.548,0.813l-5.961-3.287C9.996,11.963,10,11.898,10,11.835
		c0-0.035-0.001-0.069-0.003-0.104l5.883-3.092C16.654,9.203,17.553,9.5,18.5,9.5C20.98,9.5,23,7.48,23,5s-2.02-4.5-4.5-4.5
		S14,2.52,14,5c0,0.035,0.001,0.068,0.003,0.104L8.12,8.195c-0.774-0.563-1.673-0.86-2.62-0.86c-2.481,0-4.5,2.019-4.5,4.5
		c0,2.479,2.019,4.5,4.5,4.5c0.914,0,1.788-0.278,2.548-0.813l5.961,3.287C14.004,18.872,14,18.936,14,19c0,2.48,2.02,4.5,4.5,4.5
		S23,21.48,23,19S20.98,14.5,18.5,14.5z"/>
</g>
</svg>
