<?xml version="1.0" encoding="utf-8"?>
<!-- Generator: Adobe Illustrator 16.0.0, SVG Export Plug-In . SVG Version: 6.00 Build 0)  -->
<!DOCTYPE svg PUBLIC "-//W3C//DTD SVG 1.1//EN" "http://www.w3.org/Graphics/SVG/1.1/DTD/svg11.dtd">
<svg version="1.1" id="Layer_1" xmlns="http://www.w3.org/2000/svg" xmlns:xlink="http://www.w3.org/1999/xlink" x="0px" y="0px"
	 width="24px" height="24px" viewBox="0 0 24 24" enable-background="new 0 0 24 24" xml:space="preserve">
<g>
	<path fill="#FFFFFF" d="M19,9.997H5c-1.215,0-2,0.785-2,2c0,1.214,0.785,2,2,2h14c1.215,0,2-0.785,2-2S20.215,9.997,19,9.997z"/>
	<path fill="#FFFFFF" d="M5.039,8.789c0.242,0,0.481-0.042,0.709-0.124l13.061-4.701c0.519-0.188,0.92-0.557,1.133-1.041
		c0.203-0.459,0.209-0.967,0.019-1.43c-0.392-0.946-1.563-1.443-2.569-1.082L4.329,5.114C3.811,5.3,3.409,5.669,3.194,6.153
		C2.99,6.612,2.984,7.12,3.176,7.584C3.48,8.315,4.211,8.789,5.039,8.789z"/>
	<path fill="#FFFFFF" d="M18.809,20.031L5.748,15.332c-1.01-0.367-2.18,0.133-2.572,1.078c-0.192,0.463-0.186,0.971,0.017,1.43
		c0.214,0.484,0.617,0.855,1.135,1.041l13.061,4.701c0.229,0.082,0.467,0.125,0.709,0.125c0.828,0,1.56-0.473,1.861-1.205
		c0.191-0.463,0.186-0.971-0.018-1.432C19.729,20.588,19.325,20.219,18.809,20.031z"/>
</g>
</svg>
