<?xml version="1.0" encoding="utf-8"?>
<!-- Generator: Adobe Illustrator 16.0.0, SVG Export Plug-In . SVG Version: 6.00 Build 0)  -->
<!DOCTYPE svg PUBLIC "-//W3C//DTD SVG 1.1//EN" "http://www.w3.org/Graphics/SVG/1.1/DTD/svg11.dtd">
<svg version="1.1" id="Layer_1" xmlns="http://www.w3.org/2000/svg" xmlns:xlink="http://www.w3.org/1999/xlink" x="0px" y="0px"
	 width="24px" height="24px" viewBox="0 0 24 24" enable-background="new 0 0 24 24" xml:space="preserve">
<g>
	<path fill="#FFFFFF" d="M12.112,10.976c-2.12-0.437-3.051-0.815-2.967-1.914c0.064-0.833,1.509-1.437,2.451-1.437
		c0.904,0,2.205,0.332,2.897,1.266c0.3,0.406,0.914,0.5,1.323,0.195c0.203-0.151,0.336-0.371,0.373-0.621s-0.025-0.5-0.176-0.703
		c-1.109-1.496-3.011-2.029-4.417-2.029c-1.651,0-4.172,1.012-4.338,3.186c-0.198,2.59,2.031,3.41,4.469,3.912
		c2.261,0.463,2.88,0.853,2.88,1.805c0,0.771-1.219,1.705-2.729,1.705c-1.535,0-2.734-0.542-2.916-1.315
		c-0.101-0.434-0.479-0.732-0.919-0.732c-0.073,0-0.146,0.009-0.218,0.025c-0.247,0.059-0.456,0.207-0.589,0.422
		c-0.133,0.215-0.174,0.47-0.117,0.715c0.396,1.688,2.264,2.779,4.759,2.779c2.506,0,4.623-1.646,4.623-3.599
		C16.501,12.092,14.333,11.433,12.112,10.976z"/>
	<path fill="#FFFFFF" d="M22.699,13.58c0.095-0.594,0.141-1.145,0.141-1.682c0-6.02-4.896-10.916-10.917-10.916
		c-0.604,0-1.212,0.055-1.851,0.164C9.158,0.705,8.184,0.482,7.173,0.482c-3.699,0-6.708,3.009-6.708,6.708
		c0,1.021,0.238,2.042,0.691,2.96c-0.101,0.613-0.149,1.188-0.149,1.748c0,6.02,4.897,10.917,10.917,10.917
		c0.53,0,1.077-0.045,1.665-0.138c0.995,0.55,2.11,0.841,3.239,0.841c3.699,0,6.707-3.011,6.707-6.707
		C23.535,15.684,23.247,14.57,22.699,13.58z M11.879,19.232c-2.976,0-5.226-1.396-5.732-3.553c-0.119-0.507-0.033-1.027,0.241-1.472
		c0.274-0.44,0.704-0.751,1.21-0.868c1.028-0.242,2.097,0.42,2.339,1.451c0.068,0.152,0.728,0.546,1.942,0.546
		c1.044,0,1.676-0.563,1.734-0.743c-0.004-0.015-0.004-0.093-0.014-0.109c-0.023-0.047-0.236-0.299-2.074-0.676
		c-1.663-0.343-5.557-1.145-5.265-4.97c0.214-2.803,3.31-4.107,5.335-4.107c1.65,0,3.888,0.639,5.22,2.436
		c0.311,0.416,0.438,0.93,0.36,1.443c-0.075,0.516-0.348,0.968-0.766,1.277c-0.829,0.617-2.106,0.426-2.724-0.402
		c-0.438-0.592-1.393-0.861-2.092-0.861c-0.672,0-1.376,0.398-1.467,0.568c0.001,0.096-0.019,0.35,2.18,0.802
		c1.817,0.374,5.19,1.067,5.19,4.64C17.501,17.127,14.926,19.232,11.879,19.232z"/>
</g>
</svg>
