<?xml version="1.0" encoding="utf-8"?>
<!-- Generator: Adobe Illustrator 16.0.0, SVG Export Plug-In . SVG Version: 6.00 Build 0)  -->
<!DOCTYPE svg PUBLIC "-//W3C//DTD SVG 1.1//EN" "http://www.w3.org/Graphics/SVG/1.1/DTD/svg11.dtd">
<svg version="1.1" id="Layer_1" xmlns="http://www.w3.org/2000/svg" xmlns:xlink="http://www.w3.org/1999/xlink" x="0px" y="0px"
	 width="28.678px" height="24px" viewBox="0 0 28.678 24" enable-background="new 0 0 28.678 24" xml:space="preserve">
<g>
	<path fill="#FFFFFF" d="M22.648,10.709c-0.285,0-0.565,0.034-0.847,0.102c-0.254-2.875-2.76-5.062-5.911-5.062
		c-2.229,0-2.229,0.597-2.229,0.819V17.75c0,0.275,0.224,0.5,0.5,0.5h7.572l0.916-0.006c2,0,3.688-1.727,3.688-3.768
		C26.339,12.399,24.684,10.709,22.648,10.709z"/>
	<path fill="#FFFFFF" d="M12.161,5.75c-0.276,0-0.5,0.225-0.5,0.5v11c0,0.275,0.224,0.5,0.5,0.5c0.275,0,0.5-0.225,0.5-0.5v-11
		C12.66,5.975,12.437,5.75,12.161,5.75z"/>
	<path fill="#FFFFFF" d="M10.161,6.75c-0.276,0-0.5,0.225-0.5,0.5v10c0,0.275,0.224,0.5,0.5,0.5c0.275,0,0.5-0.225,0.5-0.5v-10
		C10.661,6.975,10.437,6.75,10.161,6.75z"/>
	<path fill="#FFFFFF" d="M8.161,7.75c-0.276,0-0.5,0.225-0.5,0.5v9c0,0.275,0.224,0.5,0.5,0.5c0.275,0,0.5-0.225,0.5-0.5v-9
		C8.661,7.975,8.437,7.75,8.161,7.75z"/>
	<path fill="#FFFFFF" d="M6.161,7.75c-0.276,0-0.5,0.225-0.5,0.5v9c0,0.275,0.224,0.5,0.5,0.5c0.275,0,0.5-0.225,0.5-0.5v-9
		C6.661,7.975,6.437,7.75,6.161,7.75z"/>
	<path fill="#FFFFFF" d="M4.161,6.75c-0.276,0-0.5,0.225-0.5,0.5v10c0,0.275,0.224,0.5,0.5,0.5c0.275,0,0.5-0.225,0.5-0.5v-10
		C4.661,6.975,4.437,6.75,4.161,6.75z"/>
	<path fill="#FFFFFF" d="M2.161,7.75c-0.276,0-0.5,0.225-0.5,0.5v9c0,0.275,0.224,0.5,0.5,0.5c0.275,0,0.5-0.225,0.5-0.5v-9
		C2.661,7.975,2.437,7.75,2.161,7.75z"/>
	<path fill="#FFFFFF" d="M0.161,8.75c-0.276,0-0.5,0.225-0.5,0.5v7c0,0.275,0.224,0.5,0.5,0.5c0.275,0,0.5-0.225,0.5-0.5v-7
		C0.661,8.975,0.437,8.75,0.161,8.75z"/>
	<path fill="#FFFFFF" d="M-1.839,10.75c-0.276,0-0.5,0.225-0.5,0.5v4c0,0.275,0.224,0.5,0.5,0.5c0.275,0,0.5-0.225,0.5-0.5v-4
		C-1.339,10.975-1.563,10.75-1.839,10.75z"/>
</g>
</svg>
