<?xml version="1.0" encoding="utf-8"?>
<!-- Generator: Adobe Illustrator 16.0.0, SVG Export Plug-In . SVG Version: 6.00 Build 0)  -->
<!DOCTYPE svg PUBLIC "-//W3C//DTD SVG 1.1//EN" "http://www.w3.org/Graphics/SVG/1.1/DTD/svg11.dtd">
<svg version="1.1" id="Layer_1" xmlns="http://www.w3.org/2000/svg" xmlns:xlink="http://www.w3.org/1999/xlink" x="0px" y="0px"
	 width="24px" height="24px" viewBox="0 0 24 24" enable-background="new 0 0 24 24" xml:space="preserve">
<g>
	<path fill="#FFFFFF" d="M23,7c0.275,0,0.5-0.225,0.5-0.5v-6C23.5,0.225,23.275,0,23,0H1C0.724,0,0.5,0.225,0.5,0.5v14
		C0.5,14.775,0.724,15,1,15h15.5v2H1c-0.276,0-0.5,0.225-0.5,0.5v6C0.5,23.775,0.724,24,1,24h22c0.275,0,0.5-0.225,0.5-0.5v-14
		C23.5,9.225,23.275,9,23,9H6.5V7H23z"/>
</g>
</svg>
