<?xml version="1.0" encoding="utf-8"?>
<!-- Generator: Adobe Illustrator 16.0.0, SVG Export Plug-In . SVG Version: 6.00 Build 0)  -->
<!DOCTYPE svg PUBLIC "-//W3C//DTD SVG 1.1//EN" "http://www.w3.org/Graphics/SVG/1.1/DTD/svg11.dtd">
<svg version="1.1" id="Layer_1" xmlns="http://www.w3.org/2000/svg" xmlns:xlink="http://www.w3.org/1999/xlink" x="0px" y="0px"
	 width="24px" height="24px" viewBox="0 0 24 24" enable-background="new 0 0 24 24" xml:space="preserve">
<g>
	<path fill="#FFFFFF" d="M13.5,9.742c0,0.183,0.098,0.35,0.257,0.438l1.47,0.818c0.148,0.082,0.33,0.084,0.481,0.002l1.53-0.832
		C17.4,10.08,17.5,9.912,17.5,9.729V9.215c0-2.78-2.195-4.961-5-4.961c-2.774,0-6,2.26-6,5.172v5.148c0,0.219-0.454,0.8-1,0.8
		c-0.586,0-0.991-0.438-1-0.589v-1.938c0-0.275-0.224-0.5-0.5-0.5H1c-0.276,0-0.5,0.225-0.5,0.5v1.938
		c0,2.781,2.183,4.961,4.969,4.961c2.774,0,5.031-2.32,5.031-5.172l-0.002-5.123C10.567,9.213,11.412,8.627,12,8.627
		c0.618,0,1.413,0.449,1.5,0.588V9.742z"/>
	<path fill="#FFFFFF" d="M23,12.348h-3c-0.275,0-0.5,0.225-0.5,0.5v1.728c0,0.22-0.454,0.801-1,0.801c-0.586,0-0.991-0.438-1-0.59
		V12.29c0-0.176-0.093-0.338-0.244-0.43c-0.15-0.09-0.338-0.093-0.494-0.01l-1.297,0.703l-1.221-0.682
		c-0.154-0.086-0.346-0.084-0.498,0.006S13.5,12.131,13.5,12.309v2.477c0,2.782,2.195,4.961,5,4.961c2.756,0,5-2.319,5-5.172v-1.728
		C23.5,12.572,23.275,12.348,23,12.348z"/>
</g>
</svg>
