<?xml version="1.0" encoding="utf-8"?>
<!-- Generator: Adobe Illustrator 16.0.0, SVG Export Plug-In . SVG Version: 6.00 Build 0)  -->
<!DOCTYPE svg PUBLIC "-//W3C//DTD SVG 1.1//EN" "http://www.w3.org/Graphics/SVG/1.1/DTD/svg11.dtd">
<svg version="1.1" id="Layer_1" xmlns="http://www.w3.org/2000/svg" xmlns:xlink="http://www.w3.org/1999/xlink" x="0px" y="0px"
	 width="24px" height="24px" viewBox="0 0 24 24" enable-background="new 0 0 24 24" xml:space="preserve">
<g>
	<path fill="#FFFFFF" d="M12.001,5.938c-4.084,0-7.408,2.394-7.408,5.336c0,2.941,3.323,5.335,7.408,5.335s7.407-2.395,7.407-5.335
		C19.408,8.332,16.085,5.938,12.001,5.938z"/>
	<path fill="#FFFFFF" d="M12.001,2.185c-6.694,0-12.141,4.076-12.141,9.09c0,2.393,1.215,4.627,3.433,6.333l-1.685,3.49
		c-0.09,0.188-0.056,0.411,0.087,0.563c0.096,0.102,0.229,0.156,0.363,0.156c0.064,0,0.129-0.015,0.191-0.039l5.091-2.108
		c1.486,0.463,3.053,0.698,4.661,0.698c6.694,0,12.14-4.078,12.14-9.092C24.141,6.263,18.695,2.185,12.001,2.185z M12.001,17.609
		c-4.636,0-8.408-2.842-8.408-6.335s3.771-6.336,8.408-6.336c4.636,0,8.407,2.842,8.407,6.336S16.637,17.609,12.001,17.609z"/>
</g>
</svg>
