<?xml version="1.0" encoding="utf-8"?>
<!-- Generator: Adobe Illustrator 16.0.0, SVG Export Plug-In . SVG Version: 6.00 Build 0)  -->
<!DOCTYPE svg PUBLIC "-//W3C//DTD SVG 1.1//EN" "http://www.w3.org/Graphics/SVG/1.1/DTD/svg11.dtd">
<svg version="1.1" id="Layer_1" xmlns="http://www.w3.org/2000/svg" xmlns:xlink="http://www.w3.org/1999/xlink" x="0px" y="0px"
	 width="24px" height="24px" viewBox="0 0 24 24" enable-background="new 0 0 24 24" xml:space="preserve">
<g>
	<path fill="#FFFFFF" d="M18.868,21.532c-0.164-0.479-0.388-1.22-0.589-1.882c-0.174-0.567-0.328-1.08-0.416-1.33
		c-0.043-0.127-0.139-0.231-0.262-0.288c-0.123-0.06-0.265-0.062-0.39-0.015c-0.569,0.221-1.073,0.33-1.5,0.33
		c-1.446,0-1.599-1.361-1.606-1.479v-6.213h3.5c0.274,0,0.5-0.225,0.5-0.5v-4c0-0.275-0.226-0.5-0.5-0.5h-3.5v-4.5
		c0-0.275-0.226-0.5-0.5-0.5h-3.602c-0.276,0-0.5,0.225-0.5,0.5c0,2.646-3.092,4.943-4.074,5.311
		c-0.195,0.074-0.325,0.26-0.325,0.47v3.222c0,0.275,0.224,0.5,0.5,0.5h1.5v6.635c0,4.965,5.017,6.053,6.95,6.053
		c0.748,0,3.021,0,4.646-1.252C18.871,21.96,18.938,21.734,18.868,21.532z"/>
</g>
</svg>
