<?xml version="1.0" encoding="utf-8"?>
<!-- Generator: Adobe Illustrator 16.0.0, SVG Export Plug-In . SVG Version: 6.00 Build 0)  -->
<!DOCTYPE svg PUBLIC "-//W3C//DTD SVG 1.1//EN" "http://www.w3.org/Graphics/SVG/1.1/DTD/svg11.dtd">
<svg version="1.1" id="Layer_1" xmlns="http://www.w3.org/2000/svg" xmlns:xlink="http://www.w3.org/1999/xlink" x="0px" y="0px"
	 width="24px" height="24px" viewBox="0 0 24 24" enable-background="new 0 0 24 24" xml:space="preserve">
<g>
	<path fill="#FFFFFF" d="M23.368,5.085c-0.152-0.166-0.397-0.21-0.599-0.105c-0.125,0.063-0.359,0.147-0.641,0.23
		c0.354-0.469,0.637-0.992,0.762-1.463c0.055-0.203-0.024-0.418-0.197-0.539c-0.172-0.12-0.4-0.12-0.572,0
		c-0.271,0.189-1.579,0.758-2.406,0.941c-1.857-1.627-4.061-1.797-6.306-0.486c-1.838,1.074-2.237,3.255-2.159,4.586
		C7.044,7.843,4.429,5.621,2.956,3.782C2.854,3.653,2.685,3.585,2.531,3.595C2.367,3.607,2.22,3.698,2.136,3.839
		c-0.697,1.176-0.89,2.475-0.557,3.758c0.183,0.699,0.501,1.317,0.87,1.816C2.271,9.327,2.102,9.218,1.94,9.087
		C1.792,8.965,1.586,8.94,1.41,9.022c-0.174,0.084-0.284,0.26-0.284,0.451c0,2.291,1.44,3.708,2.701,4.444
		c-0.224-0.024-0.454-0.074-0.681-0.144c-0.188-0.06-0.392-0.004-0.521,0.145s-0.161,0.352-0.08,0.527
		c0.723,1.601,2.093,2.687,3.789,3.084c-1.466,0.861-3.417,1.271-5.276,1.059c-0.236-0.029-0.459,0.059-0.533,0.286
		c-0.072,0.228,0.023,0.358,0.23,0.476c2.464,1.385,4.956,1.858,7.405,1.858h0.001c3.67,0,7.104-1.354,9.671-4.229
		c2.406-2.694,3.67-5.901,3.416-9.022c0.635-0.471,1.586-1.337,2.174-2.266C23.542,5.5,23.521,5.252,23.368,5.085z"/>
</g>
</svg>
