<?xml version="1.0" encoding="utf-8"?>
<!-- Generator: Adobe Illustrator 16.0.0, SVG Export Plug-In . SVG Version: 6.00 Build 0)  -->
<!DOCTYPE svg PUBLIC "-//W3C//DTD SVG 1.1//EN" "http://www.w3.org/Graphics/SVG/1.1/DTD/svg11.dtd">
<svg version="1.1" id="Layer_1" xmlns="http://www.w3.org/2000/svg" xmlns:xlink="http://www.w3.org/1999/xlink" x="0px" y="0px"
	 width="24px" height="24px" viewBox="0 0 24 24" enable-background="new 0 0 24 24" xml:space="preserve">
<g>
	<path fill="#FFFFFF" d="M7.36,15.645H1.868c-0.967,0-1.754-0.787-1.754-1.754V3.397c0-0.967,0.787-1.753,1.754-1.753H7.36
		c0.967,0,1.754,0.786,1.754,1.753v10.494C9.114,14.857,8.327,15.645,7.36,15.645z"/>
	<path fill="#FFFFFF" d="M23.49,11.087c0.271-0.761,0.292-1.977-0.491-2.799c0.063-1.358-0.286-2.322-1.037-2.875
		c-0.011-0.707-0.325-1.526-0.823-2.099c-0.383-0.438-0.824-0.672-1.277-0.672h-9.228c-0.142,0-0.325,0.033-0.52,0.08v11.709
		c0.804,1.031,1.395,2.398,2,4.146v2.687c0,0.09,0.025,0.18,0.071,0.258c0.319,0.528,0.875,0.834,1.524,0.834l0,0
		c0.797,0,1.619-0.459,2.203-1.23c0.576-0.762,1.39-2.453,0.693-5.48h4.213c0.916,0,3.065-1.139,3.065-2.699
		C23.887,12.398,23.825,11.569,23.49,11.087z"/>
</g>
</svg>
