<?xml version="1.0" encoding="utf-8"?>
<!-- Generator: Adobe Illustrator 16.0.0, SVG Export Plug-In . SVG Version: 6.00 Build 0)  -->
<!DOCTYPE svg PUBLIC "-//W3C//DTD SVG 1.1//EN" "http://www.w3.org/Graphics/SVG/1.1/DTD/svg11.dtd">
<svg version="1.1" id="Layer_1" xmlns="http://www.w3.org/2000/svg" xmlns:xlink="http://www.w3.org/1999/xlink" x="0px" y="0px"
	 width="24px" height="24px" viewBox="0 0 24 24" enable-background="new 0 0 24 24" xml:space="preserve">
<g>
	<path fill="#FFFFFF" d="M6.819,13.501h-6c-0.276,0-0.5-0.226-0.5-0.5v-10c0-0.275,0.224-0.5,0.5-0.5h6c0.276,0,0.5,0.225,0.5,0.5
		v10C7.319,13.275,7.095,13.501,6.819,13.501z"/>
	<g>
		<path fill="#FFFFFF" d="M7.319,3.501c-0.276,0-0.5,0.225-0.5,0.5c0,0.094,0.033,0.177,0.078,0.252
			C6.878,4.289,6.854,4.329,6.819,4.376c-0.25,0.334-0.292,0.667-0.25,0.917S6.5,5.96,6.555,6.21c0.055,0.25-0.13,0.541-0.016,0.75
			c0.114,0.208,0.363,0.5,0.28,0.708C6.802,7.711,6.793,7.722,6.788,7.726c0.011,0.017,0.031,0.111,0.031,0.525
			c0,0.834,0.083,0.875,0,1.25s0.083,0.292,0,0.667s0,0.958,0,0.958s-0.083,0.042,0,0.292c0.059,0.176-0.022,0.41,0.096,0.521
			c-0.003,0.021-0.013,0.041-0.013,0.063c0,0.246,0.182,0.442,0.417,0.483V3.501L7.319,3.501z"/>
		<path fill="#FFFFFF" d="M23.598,12.501H18.32c-0.276,0-0.5-0.225-0.5-0.5s0.224-0.5,0.5-0.5h5.103
			c0.089-0.208,0.156-0.432,0.181-0.678c0.047-0.474-0.049-0.924-0.238-1.322H18.32c-0.275,0-0.5-0.225-0.5-0.5s0.225-0.5,0.5-0.5
			h4.688c0.095-0.518,0.058-1.092-0.135-1.594c-0.056-0.146-0.123-0.279-0.199-0.406H18.32c-0.275,0-0.5-0.225-0.5-0.5
			s0.225-0.5,0.5-0.5h3.555c0.002-0.617-0.201-1.271-0.598-1.793c-0.59-0.777-1.521-1.207-2.623-1.207h-8.188
			c-0.556,0-1.045,0.188-1.415,0.546C8.843,3.245,8.591,3.378,8.32,3.446v9.279c0.227,0.111,0.432,0.26,0.582,0.439
			c0.094,0.111,0.199,0.215,0.312,0.304c1.503,1.185,2.471,2.438,2.959,3.834c0.073,0.207,0.147,0.421,0.147,0.595v2.381
			c0,0.093,0.025,0.183,0.073,0.261c0.375,0.614,1.021,0.961,1.694,0.961c0.269,0,0.539-0.056,0.804-0.168
			c1.229-0.533,2.199-2.342,1.395-5.83h4.768c0.787,0,2.629,0,2.629-2.248C23.68,13.089,23.672,12.799,23.598,12.501z"/>
	</g>
</g>
</svg>
