<?xml version="1.0" encoding="utf-8"?>
<!-- Generator: Adobe Illustrator 16.0.0, SVG Export Plug-In . SVG Version: 6.00 Build 0)  -->
<!DOCTYPE svg PUBLIC "-//W3C//DTD SVG 1.1//EN" "http://www.w3.org/Graphics/SVG/1.1/DTD/svg11.dtd">
<svg version="1.1" id="Layer_1" xmlns="http://www.w3.org/2000/svg" xmlns:xlink="http://www.w3.org/1999/xlink" x="0px" y="0px"
	 width="24px" height="24px" viewBox="0 0 24 24" enable-background="new 0 0 24 24" xml:space="preserve">
<g>
	<path fill="#FFFFFF" d="M19.5,4.25c0-2.102-1.717-3.875-3.75-3.875c-1.787,0-3.009,0.893-3.5,2.529
		c-0.491-1.638-1.713-2.529-3.5-2.529c-2.168,0-4,1.66-4,3.625c0,1.732,1.503,3.104,2.75,3.496v0.738L5.121,7.639
		C4.971,7.602,4.813,7.635,4.692,7.73C4.57,7.826,4.5,7.97,4.5,8.125v4c0,0.153,0.071,0.299,0.192,0.395
		c0.121,0.095,0.279,0.127,0.429,0.092L7.5,12.016v1.608c0,0.276,0.224,0.5,0.5,0.5h2.399l-5.815,8.724
		c-0.153,0.229-0.091,0.539,0.139,0.692C4.808,23.598,4.905,23.624,5,23.624c0.162,0,0.32-0.078,0.417-0.224l5.084-7.625v7.35
		c0,0.275,0.224,0.5,0.5,0.5s0.5-0.225,0.5-0.5v-7.35l5.084,7.627c0.097,0.145,0.255,0.223,0.417,0.223
		c0.096,0,0.191-0.027,0.277-0.084c0.229-0.152,0.291-0.464,0.139-0.693l-5.815-8.723h2.899c0.007,0,0.014,0,0.02,0
		c0.276,0,0.5-0.225,0.5-0.5c0-0.096-0.025-0.186-0.073-0.262l-1.455-5.238h2.26C17.783,8.125,19.5,6.352,19.5,4.25z"/>
</g>
</svg>
