<?xml version="1.0" encoding="utf-8"?>
<!-- Generator: Adobe Illustrator 16.0.0, SVG Export Plug-In . SVG Version: 6.00 Build 0)  -->
<!DOCTYPE svg PUBLIC "-//W3C//DTD SVG 1.1//EN" "http://www.w3.org/Graphics/SVG/1.1/DTD/svg11.dtd">
<svg version="1.1" id="Layer_1" xmlns="http://www.w3.org/2000/svg" xmlns:xlink="http://www.w3.org/1999/xlink" x="0px" y="0px"
	 width="24px" height="24px" viewBox="0 0 24 24" enable-background="new 0 0 24 24" xml:space="preserve">
<g>
	<path fill="#FFFFFF" d="M21.803,2.458c-0.705-0.537-1.561-0.819-2.471-0.819c-2.352,0-5.287,1.946-6.178,6.224
		c-0.037,0.18,0.025,0.365,0.166,0.482c0.141,0.119,0.334,0.15,0.504,0.086c0.865-0.333,1.451-0.295,1.75,0.163
		c0.377,0.583,0.277,1.71,0.045,2.229c-0.402,0.896-1.563,2.485-2.559,3.53c-0.612-0.686-0.919-2.733-1.195-4.566
		c-0.515-3.429-1.099-7.312-3.893-7.571c-2.341,0-5.837,3.459-7.36,5.289C0.471,7.675,0.458,7.915,0.58,8.1
		c0.023,0.036,0.585,0.883,1.164,1.563c0.088,0.104,0.214,0.164,0.35,0.174c0.138,0.01,0.268-0.043,0.369-0.135
		c0.79-0.724,1.217-0.838,1.4-0.838c0.355,0,0.576,0.455,0.85,1.117l0.052,0.101c0.43,1.026,0.795,2.458,1.182,4.023
		c0.958,3.875,2.043,8.256,4.794,8.256c0.005,0,0.01,0,0.016,0c4.132,0,8.011-5.364,10.569-9.475
		C23.541,9.327,24.637,4.612,21.803,2.458z"/>
</g>
</svg>
