<?xml version="1.0" encoding="utf-8"?>
<!-- Generator: Adobe Illustrator 16.0.0, SVG Export Plug-In . SVG Version: 6.00 Build 0)  -->
<!DOCTYPE svg PUBLIC "-//W3C//DTD SVG 1.1//EN" "http://www.w3.org/Graphics/SVG/1.1/DTD/svg11.dtd">
<svg version="1.1" id="Layer_1" xmlns="http://www.w3.org/2000/svg" xmlns:xlink="http://www.w3.org/1999/xlink" x="0px" y="0px"
	 width="24px" height="24px" viewBox="0 0 24 24" enable-background="new 0 0 24 24" xml:space="preserve">
<g>
	<polygon fill="#FFFFFF" points="13.313,8 12.359,8 15.949,18.311 16.432,16.938 	"/>
	<polygon fill="#FFFFFF" points="7.312,8 6.359,8 9.95,18.313 10.432,16.939 	"/>
	<path fill="#FFFFFF" d="M12,0C5.373,0,0,5.373,0,12s5.373,12,12,12s12-5.373,12-12S18.627,0,12,0z M19.307,11.756l-2.771,7.909
		c-0.07,0.2-0.259,0.335-0.474,0.335h-0.229c-0.213,0-0.402-0.135-0.473-0.336l-2.402-6.9l-2.425,6.902
		C10.464,19.865,10.275,20,10.062,20H9.833c-0.213,0-0.402-0.135-0.472-0.336L5.3,8H5C4.724,8,4.5,7.775,4.5,7.5S4.724,7,5,7h4
		c0.276,0,0.5,0.225,0.5,0.5S9.276,8,9,8H8.371l2.592,7.428l1.468-4.18L11.3,8H11c-0.276,0-0.5-0.225-0.5-0.5S10.724,7,11,7h4
		c0.275,0,0.5,0.225,0.5,0.5S15.275,8,15,8h-0.629l2.591,7.423l1.399-3.994c0.105-0.312,1.008-3.104-0.35-4.724
		c-0.179-0.211-0.148-0.525,0.063-0.703c0.213-0.179,0.527-0.149,0.705,0.062C20.454,8.059,19.512,11.154,19.307,11.756z"/>
</g>
</svg>
