<?xml version="1.0" encoding="utf-8"?>
<!-- Generator: Adobe Illustrator 16.0.0, SVG Export Plug-In . SVG Version: 6.00 Build 0)  -->
<!DOCTYPE svg PUBLIC "-//W3C//DTD SVG 1.1//EN" "http://www.w3.org/Graphics/SVG/1.1/DTD/svg11.dtd">
<svg version="1.1" id="Layer_1" xmlns="http://www.w3.org/2000/svg" xmlns:xlink="http://www.w3.org/1999/xlink" x="0px" y="0px"
	 width="29px" height="24px" viewBox="0 0 29 24" enable-background="new 0 0 29 24" xml:space="preserve">
<g>
	<path fill="#FFFFFF" d="M2.5,8.485v-4c0-0.275-0.224-0.5-0.5-0.5h-4c-0.276,0-0.5,0.225-0.5,0.5v4c0,0.275,0.224,0.5,0.5,0.5h4
		C2.276,8.985,2.5,8.761,2.5,8.485z"/>
	<path fill="#FFFFFF" d="M8,3.985H4c-0.276,0-0.5,0.225-0.5,0.5v4c0,0.275,0.224,0.5,0.5,0.5h4c0.276,0,0.5-0.225,0.5-0.5v-4
		C8.5,4.21,8.276,3.985,8,3.985z"/>
	<path fill="#FFFFFF" d="M10,8.985h4c0.275,0,0.5-0.225,0.5-0.5v-4c0-0.275-0.225-0.5-0.5-0.5h-4c-0.276,0-0.5,0.225-0.5,0.5v4
		C9.5,8.761,9.724,8.985,10,8.985z"/>
	<path fill="#FFFFFF" d="M16,8.985h4c0.275,0,0.5-0.225,0.5-0.5v-4c0-0.275-0.225-0.5-0.5-0.5h-4c-0.275,0-0.5,0.225-0.5,0.5v4
		C15.5,8.761,15.725,8.985,16,8.985z"/>
	<path fill="#FFFFFF" d="M26,3.985h-4c-0.275,0-0.5,0.225-0.5,0.5v4c0,0.275,0.225,0.5,0.5,0.5h4c0.275,0,0.5-0.225,0.5-0.5v-4
		C26.5,4.21,26.275,3.985,26,3.985z"/>
	<path fill="#FFFFFF" d="M3.729,10.983c-0.246-0.127-0.547-0.031-0.674,0.215l-1.056,2.043l-1.056-2.043
		c-0.127-0.246-0.43-0.342-0.674-0.215c-0.245,0.127-0.341,0.428-0.215,0.674l1.381,2.674l-1.381,2.675
		c-0.126,0.245-0.03,0.547,0.215,0.674c0.073,0.038,0.152,0.057,0.229,0.057c0.181,0,0.356-0.1,0.445-0.271l1.056-2.044l1.056,2.044
		c0.089,0.173,0.264,0.271,0.445,0.271c0.077,0,0.156-0.019,0.229-0.057c0.245-0.127,0.341-0.429,0.215-0.674l-1.382-2.675
		l1.382-2.674C4.071,11.411,3.975,11.11,3.729,10.983z"/>
	<path fill="#FFFFFF" d="M6.5,10.927c-0.973,0-1.712,0.521-1.979,1.391c-0.081,0.266,0.068,0.543,0.332,0.625
		c0.265,0.08,0.544-0.068,0.624-0.332c0.173-0.564,0.651-0.686,1.022-0.686c0.484,0,1,0.135,1,1.729v0.327H6.194
		c-0.935,0-1.695,0.764-1.695,1.695v0.608c0,0.935,0.761,1.694,1.695,1.694h1.805c0.276,0,0.5-0.226,0.5-0.5v-0.5v-2.5v-0.828
		C8.5,11.845,7.827,10.927,6.5,10.927z M6.195,16.984c-0.384,0-0.695-0.313-0.695-0.694v-0.608c0-0.383,0.312-0.692,0.695-0.692H7.5
		v2H6.195V16.984z"/>
	<path fill="#FFFFFF" d="M11.642,11.052c-0.355,0-0.771,0.201-1.142,0.494v-0.119c0-0.275-0.224-0.5-0.5-0.5s-0.5,0.225-0.5,0.5
		v6.06c0,0.274,0.224,0.5,0.5,0.5s0.5-0.226,0.5-0.5v-4.377c0.01-0.285,0.783-1.059,1.142-1.059c0.61,0,0.858,0.146,0.858,1.604
		v3.827c0,0.275,0.225,0.5,0.5,0.5s0.5-0.225,0.5-0.5v-3.827C13.5,12.747,13.5,11.052,11.642,11.052z"/>
	<path fill="#FFFFFF" d="M21.5,10.927c-0.721,0-1.329,0.272-1.861,0.834c-0.188,0.199-0.184,0.516,0.02,0.705
		c0.197,0.19,0.516,0.185,0.705-0.018c0.35-0.366,0.688-0.521,1.141-0.521c0.482,0,1,0.135,1,1.729v0.328h-1.306
		c-0.937,0-1.694,0.763-1.694,1.695v0.607c0,0.936,0.762,1.693,1.694,1.693h1.806c0.273,0,0.5-0.225,0.5-0.5v-0.5v-2.5v-0.828
		C23.5,11.845,22.827,10.927,21.5,10.927z M21.195,16.984c-0.385,0-0.695-0.313-0.695-0.694v-0.608c0-0.383,0.313-0.692,0.695-0.692
		H22.5v2h-1.305V16.984z"/>
	<path fill="#FFFFFF" d="M16.469,16.018c-0.131,0-0.258,0.017-0.386,0.027c-0.047-0.015-0.095-0.027-0.146-0.027
		c-0.295,0-0.597-0.153-0.597-0.5c0-0.317,0.255-0.574,0.569-0.588c0.178,0.051,0.359,0.088,0.556,0.088c1.104,0,2-0.896,2-2
		c0-0.391-0.114-0.749-0.31-1.058c0.053-0.016,0.103-0.034,0.154-0.034c0.275,0,0.5-0.224,0.5-0.5c0-0.274-0.225-0.5-0.5-0.5
		c-0.344,0-0.676,0.112-0.947,0.313c-0.271-0.139-0.573-0.225-0.898-0.225c-1.104,0-2,0.896-2,2c0,0.484,0.181,0.924,0.47,1.271
		c-0.358,0.291-0.595,0.73-0.595,1.229c0,0.4,0.154,0.75,0.408,1.014c-0.519,0.363-0.845,0.891-0.845,1.486c0,1.121,1.125,2,2.563,2
		s2.563-0.879,2.563-2S17.906,16.018,16.469,16.018z M16.469,12.017c0.551,0,1,0.447,1,1c0,0.551-0.449,1-1,1s-1-0.449-1-1
		C15.469,12.464,15.917,12.017,16.469,12.017z M16.469,19.018c-0.847,0-1.563-0.459-1.563-1c0-0.543,0.715-1,1.563-1
		c0.85,0,1.563,0.457,1.563,1C18.032,18.559,17.316,19.018,16.469,19.018z"/>
</g>
</svg>
