<?xml version="1.0" encoding="utf-8"?>
<!-- Generator: Adobe Illustrator 16.0.0, SVG Export Plug-In . SVG Version: 6.00 Build 0)  -->
<!DOCTYPE svg PUBLIC "-//W3C//DTD SVG 1.1//EN" "http://www.w3.org/Graphics/SVG/1.1/DTD/svg11.dtd">
<svg version="1.1" id="Layer_1" xmlns="http://www.w3.org/2000/svg" xmlns:xlink="http://www.w3.org/1999/xlink" x="0px" y="0px"
	 width="24px" height="24px" viewBox="0 0 24 24" enable-background="new 0 0 24 24" xml:space="preserve">
<g>
	<path fill="#FFFFFF" d="M10.812,7.713L8.63,3.279C8.546,3.107,8.372,3,8.181,3H3.818C3.645,3,3.485,3.089,3.393,3.236
		c-0.091,0.146-0.1,0.33-0.024,0.483l2.064,4.194l-4.23,7.334c-0.089,0.153-0.089,0.347,0,0.5c0.089,0.153,0.254,0.25,0.433,0.25H6
		c0.179,0,0.344-0.097,0.433-0.25l4.364-7.565C10.88,8.038,10.886,7.861,10.812,7.713z"/>
	<path fill="#FFFFFF" d="M22.795,0.248C22.705,0.094,22.541,0,22.363,0h-4.364c-0.181,0-0.347,0.098-0.437,0.255L9.926,13.846
		C9.84,14,9.841,14.188,9.929,14.342l5.455,9.409C15.473,23.904,15.639,24,15.816,24h4.363c0.18,0,0.344-0.096,0.434-0.25
		c0.088-0.154,0.088-0.346,0-0.5L15.3,14.087l7.497-13.342C22.887,0.59,22.885,0.4,22.795,0.248z"/>
</g>
</svg>
