<?xml version="1.0" encoding="utf-8"?>
<!-- Generator: Adobe Illustrator 16.0.0, SVG Export Plug-In . SVG Version: 6.00 Build 0)  -->
<!DOCTYPE svg PUBLIC "-//W3C//DTD SVG 1.1//EN" "http://www.w3.org/Graphics/SVG/1.1/DTD/svg11.dtd">
<svg version="1.1" id="Layer_1" xmlns="http://www.w3.org/2000/svg" xmlns:xlink="http://www.w3.org/1999/xlink" x="0px" y="0px"
	 width="24.572px" height="24px" viewBox="0 0 24.572 24" enable-background="new 0 0 24.572 24" xml:space="preserve">
<g>
	<path fill="#FFFFFF" d="M12.983,12.945H10.67c-0.118-0.833-0.091-2.3-0.061-3.044l4.664-4.447l1.996-0.419
		c0.202-0.042,0.354-0.205,0.387-0.41l0.284-1.93c0.021-0.141-0.021-0.284-0.114-0.392c-0.094-0.107-0.228-0.171-0.372-0.171h-7.419
		c-0.271,0-0.492,0.223-0.492,0.492v1.855c0,0.23,0.161,0.431,0.387,0.479l1.625,0.359L9.45,7.528L7.024,4.1h1.045
		C8.34,4.1,8.56,3.88,8.56,3.608V1.643c0-0.27-0.221-0.492-0.491-0.492H0.206c-0.271,0-0.492,0.222-0.492,0.492v1.673
		c0,0.248,0.186,0.457,0.432,0.488l1.963,0.248l4.754,5.624c-0.011,0.58-0.042,2.346-0.039,2.769
		c-0.054,0.124-0.452,0.364-0.832,0.504H4.136c-0.271,0-0.491,0.222-0.491,0.49v1.968c0,0.271,0.22,0.491,0.491,0.491h8.847
		c0.271,0,0.491-0.222,0.491-0.491v-1.968C13.475,13.167,13.254,12.945,12.983,12.945z"/>
	<path fill="#FFFFFF" d="M18.804,11.735l2.105,0.333c0.024,0.004,0.053,0.006,0.078,0.006c0.223,0,0.424-0.151,0.477-0.376
		l2.534-10.496c0.033-0.137,0.007-0.279-0.072-0.394c-0.076-0.114-0.202-0.19-0.343-0.209l-4.64-0.594
		c-0.139-0.021-0.28,0.023-0.388,0.118c-0.108,0.094-0.167,0.226-0.167,0.369V11.25C18.39,11.492,18.565,11.697,18.804,11.735z"/>
	<path fill="#FFFFFF" d="M18.253,15.709l2.814,0.432c0.023,0.004,0.05,0.006,0.074,0.006c0.108,0,0.216-0.035,0.304-0.103
		c0.104-0.085,0.175-0.208,0.186-0.343l0.24-2.584c0.023-0.266-0.169-0.506-0.436-0.533l-2.725-0.3
		c-0.269-0.026-0.507,0.159-0.542,0.423l-0.332,2.452C17.804,15.423,17.988,15.669,18.253,15.709z"/>
	<path fill="#FFFFFF" d="M3.645,18.564v0.983c2.949,0,2.68,0.597,2.68,1.5c0,0.2-0.011,1.962-1.752,1.962
		c-1.458,0-1.911-1.267-1.911-1.729v-5.389H1.679v5.389c0,1.137,1.005,2.712,2.894,2.712c1.906,0,2.735-1.527,2.735-2.945
		C7.308,19.216,6.594,18.564,3.645,18.564z"/>
	<path fill="#FFFFFF" d="M12.492,21.673c0,0.704-0.703,1.345-1.475,1.345c-0.772,0-1.476-0.635-1.476-1.334v-2.841H8.56v2.841
		C8.56,22.939,9.685,24,11.017,24c1.309,0,2.458-1.086,2.458-2.327v-2.83h-0.983V21.673z"/>
	<path fill="#FFFFFF" d="M16.685,21.838c0.391-0.414,0.827-0.879,1.164-1.227c0.181-0.185,0.729-0.75,0.496-1.297
		c-0.063-0.144-0.264-0.473-0.851-0.473h-3.038v0.983l2.774,0.006c-0.026,0.028-0.059,0.063-0.09,0.097
		c-0.341,0.35-0.781,0.818-1.176,1.236c-0.373,0.396-0.707,0.752-0.863,0.91c-0.294,0.294-0.382,0.701-0.231,1.064
		c0.156,0.383,0.536,0.618,0.986,0.618h3.513v-0.981l-3.574-0.006C15.963,22.604,16.302,22.244,16.685,21.838z"/>
	<path fill="#FFFFFF" d="M20.94,22.77c0.165-0.166,0.509-0.529,0.894-0.939c0.39-0.412,0.823-0.873,1.157-1.215
		c0.182-0.186,0.729-0.752,0.495-1.301c-0.061-0.143-0.262-0.472-0.848-0.472h-3.268v0.983l3.003,0.006
		c-0.026,0.027-0.056,0.063-0.09,0.098c-0.336,0.348-0.772,0.813-1.166,1.229c-0.378,0.4-0.715,0.758-0.875,0.92
		c-0.292,0.293-0.381,0.699-0.229,1.064c0.156,0.381,0.534,0.617,0.985,0.617h3.286v-0.982L20.94,22.77z"/>
</g>
</svg>
