<?xml version="1.0" encoding="utf-8"?>
<!-- Generator: Adobe Illustrator 16.0.0, SVG Export Plug-In . SVG Version: 6.00 Build 0)  -->
<!DOCTYPE svg PUBLIC "-//W3C//DTD SVG 1.1//EN" "http://www.w3.org/Graphics/SVG/1.1/DTD/svg11.dtd">
<svg version="1.1" id="Layer_1" xmlns="http://www.w3.org/2000/svg" xmlns:xlink="http://www.w3.org/1999/xlink" x="0px" y="0px"
	 width="30.688px" height="24px" viewBox="0 0 30.688 24" enable-background="new 0 0 30.688 24" xml:space="preserve">
<g>
	<path fill="#FFFFFF" d="M19.057,4.958H9.157c-0.276,0-0.5,0.225-0.5,0.5v2.02c0,0.237,0.166,0.441,0.397,0.49L11.612,8.5
		l-2.656,3.02L5.706,6.958h1.449c0.276,0,0.5-0.224,0.5-0.5v-2c0-0.274-0.224-0.5-0.5-0.5h-10c-0.275,0-0.5,0.226-0.5,0.5v1.557
		c0,0.256,0.192,0.471,0.446,0.497l2.61,0.283L5.844,13.9c-0.013,0.672-0.056,2.912-0.054,3.484
		c-0.046,0.145-0.548,0.424-1.115,0.57h-2.52c-0.275,0-0.5,0.227-0.5,0.5v2c0,0.273,0.225,0.5,0.5,0.5h11c0.275,0,0.5-0.227,0.5-0.5
		v-2c0-0.273-0.225-0.5-0.5-0.5h-2.746c-0.145-0.863-0.133-2.643-0.081-3.813l5.917-5.466l2.542-0.459
		c0.209-0.038,0.372-0.204,0.403-0.414l0.356-2.271c0.021-0.146-0.021-0.293-0.112-0.403C19.342,5.02,19.202,4.958,19.057,4.958z"/>
	<path fill="#FFFFFF" d="M27.256,2.924c-0.082-0.116-0.207-0.193-0.347-0.212l-5.688-0.75c-0.146-0.021-0.287,0.024-0.395,0.12
		c-0.109,0.096-0.171,0.23-0.171,0.376V16c0,0.244,0.179,0.453,0.421,0.492l2.571,0.418c0.026,0.004,0.056,0.006,0.082,0.006
		c0.229,0,0.433-0.156,0.485-0.387L27.33,3.323C27.363,3.186,27.336,3.041,27.256,2.924z"/>
	<path fill="#FFFFFF" d="M24.055,17.795l-3.428-0.375c-0.262-0.029-0.515,0.16-0.549,0.43l-0.418,3.082
		c-0.037,0.271,0.149,0.521,0.42,0.563l3.543,0.543c0.022,0.004,0.049,0.006,0.076,0.006c0.108,0,0.219-0.037,0.308-0.106
		c0.108-0.084,0.179-0.209,0.189-0.349l0.302-3.25C24.523,18.064,24.325,17.824,24.055,17.795z"/>
</g>
</svg>
