<?xml version="1.0" encoding="utf-8"?>
<!-- Generator: Adobe Illustrator 16.0.0, SVG Export Plug-In . SVG Version: 6.00 Build 0)  -->
<!DOCTYPE svg PUBLIC "-//W3C//DTD SVG 1.1//EN" "http://www.w3.org/Graphics/SVG/1.1/DTD/svg11.dtd">
<svg version="1.1" id="Layer_1" xmlns="http://www.w3.org/2000/svg" xmlns:xlink="http://www.w3.org/1999/xlink" x="0px" y="0px"
	 width="24px" height="24px" viewBox="0 0 24 24" enable-background="new 0 0 24 24" xml:space="preserve">
<g>
	<path fill="#FFFFFF" d="M14.04,12.568c0.056,0,0.117-0.006,0.187-0.021c1.147-0.246,3.252-0.824,3.758-0.992
		c0.15-0.051,0.219-0.105,0.23-0.139c0.021-0.049,0.012-0.213-0.146-0.514c-0.414-0.779-1.215-1.785-1.553-2.084
		c-0.068-0.061-0.137-0.094-0.19-0.094c-0.08,0-0.138,0.07-0.158,0.102c-0.222,0.313-0.907,1.283-1.47,2.076l-0.76,1.073
		c-0.129,0.185-0.147,0.407-0.094,0.515C13.855,12.516,13.885,12.568,14.04,12.568z"/>
	<path fill="#FFFFFF" d="M11.564,16.367c-0.017-0.243-0.182-0.461-0.299-0.461c-0.076,0-0.22,0.074-0.394,0.283
		c-0.23,0.274-0.647,0.785-1.061,1.289c-0.46,0.563-0.914,1.117-1.101,1.338c-0.286,0.338-0.296,0.479-0.287,0.524
		c0.01,0.054,0.089,0.146,0.282,0.246c0.887,0.468,1.967,0.758,2.348,0.812l0.13,0.021c0.158,0.024,0.383,0.021,0.383,0.021
		s0.093-0.104,0.071-0.563c-0.047-0.976-0.057-2.063-0.063-2.781C11.572,16.727,11.57,16.461,11.564,16.367z"/>
	<path fill="#FFFFFF" d="M10.092,13.672c0.001-0.091-0.128-0.236-0.415-0.342c-0.582-0.215-1.142-0.434-1.664-0.639
		c-0.579-0.228-1.109-0.435-1.562-0.592C6.27,12.036,6.07,11.964,5.92,11.964c-0.063,0-0.213,0-0.279,0.524
		c-0.146,1.151-0.067,2.124-0.007,2.413c0.068,0.328,0.112,0.342,0.271,0.342l0,0c0.093,0,0.259-0.021,0.522-0.117
		c0.922-0.338,1.834-0.627,2.501-0.84l0.636-0.205C9.949,13.955,10.09,13.768,10.092,13.672z"/>
	<path fill="#FFFFFF" d="M21.24,15.182c-0.233-0.555-0.625-1.021-1.137-1.369c0.543-0.438,0.813-0.943,0.94-1.264
		c0.265-0.66,0.429-1.729-0.284-3.074c-0.537-1.014-1.539-2.335-2.232-2.943c-1.219-1.074-3.084-1.09-4.273-0.092l-0.221-2.646
		C13.838,1.363,12.069,0.5,10.615,0.5c-0.177,0-0.37,0.012-0.582,0.039C8.418,0.75,7.127,1.137,5.844,1.795
		c-0.416,0.216-1.519,0.786-1.87,2.156c-0.35,1.36,0.283,2.514,0.789,3.262l1.149,1.704c-1.441,0.005-3.017,0.992-3.295,3.19
		c-0.189,1.499-0.098,2.79,0.038,3.438c0.383,1.84,1.73,2.604,2.9,2.729c-0.188,0.547-0.23,1.101-0.123,1.648
		c0.112,0.577,0.502,1.651,1.855,2.36c1.183,0.625,2.604,1.03,3.413,1.145c0.246,0.041,0.516,0.072,0.777,0.072
		c0.896,0,1.71-0.34,2.296-0.955c0.318-0.334,0.556-0.735,0.707-1.198c0.588,0.448,1.258,0.684,1.974,0.684
		c0.625,0,1.56-0.188,2.463-1.076c0.937-0.918,1.676-1.869,2.08-2.68C21.204,17.857,21.838,16.592,21.24,15.182z M5.957,4.461
		c0.124-0.482,0.53-0.691,0.827-0.844C7.844,3.07,8.927,2.75,10.298,2.57c0.115-0.016,0.221-0.021,0.317-0.021
		c0.838,0,1.301,0.475,1.377,1.409l0.077,0.924c0.101,1.228,0.284,3.453,0.424,4.972c0.077,0.836-0.055,1.445-0.393,1.814
		c-0.21,0.23-0.498,0.357-0.81,0.357c-0.503,0-1.037-0.328-1.393-0.854C9.429,10.475,7.29,7.299,6.458,6.067
		C6.001,5.389,5.847,4.893,5.957,4.461z M6.771,16.066c-0.327,0.119-0.61,0.178-0.867,0.178l0,0c-0.671,0-1.09-0.375-1.244-1.115
		c-0.093-0.443-0.168-1.521-0.011-2.764c0.154-1.219,0.863-1.399,1.271-1.399c0.32,0,0.619,0.104,0.857,0.188
		c0.467,0.164,1.008,0.375,1.6,0.605c0.516,0.202,1.07,0.419,1.646,0.631c0.677,0.25,1.077,0.734,1.068,1.295
		c-0.009,0.592-0.462,1.096-1.211,1.346L9.232,15.24C8.575,15.449,7.679,15.734,6.771,16.066z M12.29,21.133
		c-0.203,0.211-0.476,0.319-0.813,0.319c-0.152,0-0.309-0.022-0.451-0.046l-0.108-0.018c-0.511-0.07-1.715-0.41-2.677-0.916
		c-0.455-0.24-0.724-0.559-0.798-0.94c-0.108-0.558,0.237-1.044,0.506-1.362c0.184-0.217,0.633-0.768,1.089-1.322
		c0.415-0.508,0.834-1.021,1.066-1.299c0.442-0.529,0.875-0.643,1.161-0.643c0.751,0,1.25,0.708,1.297,1.393
		c0.006,0.104,0.01,0.391,0.014,0.787c0.008,0.709,0.018,1.783,0.063,2.744C12.668,20.432,12.555,20.855,12.29,21.133z M13.118,11.4
		l0.761-1.076c0.563-0.791,1.248-1.76,1.467-2.072c0.418-0.597,1.25-0.693,1.829-0.185c0.452,0.397,1.327,1.521,1.774,2.365
		c0.281,0.532,0.344,0.976,0.193,1.354c-0.134,0.332-0.418,0.571-0.846,0.715c-0.537,0.181-2.664,0.767-3.863,1.022
		c-0.137,0.027-0.271,0.043-0.396,0.043c-0.485,0-0.881-0.227-1.084-0.616C12.721,12.499,12.786,11.875,13.118,11.4z M19.164,17.355
		c-0.305,0.605-0.917,1.385-1.682,2.135c-0.332,0.326-0.678,0.488-1.029,0.488l0,0c-0.68,0-1.084-0.592-1.303-0.91
		c-0.198-0.286-0.521-0.784-0.922-1.398l-0.893-1.365c-0.469-0.717-0.302-1.263-0.161-1.521c0.315-0.584,1.125-0.854,1.791-0.594
		c0.229,0.074,0.976,0.306,1.741,0.543c0.707,0.22,1.436,0.441,1.824,0.566c0.41,0.131,0.687,0.358,0.822,0.68
		C19.582,16.52,19.289,17.105,19.164,17.355z"/>
	<path fill="#FFFFFF" d="M10.729,10.613c0.224,0.331,0.517,0.509,0.633,0.381c0.035-0.037,0.207-0.27,0.135-1.049
		c-0.14-1.521-0.324-3.753-0.425-4.98l-0.071-0.86c-0.04-0.49-0.09-0.556-0.386-0.556c-0.057,0-0.12,0.004-0.188,0.015
		c-1.252,0.162-2.233,0.453-3.181,0.94C7.143,4.558,6.938,4.662,6.925,4.709C6.923,4.717,6.881,4.905,7.287,5.506
		C8.12,6.739,10.262,9.916,10.729,10.613z"/>
	<path fill="#FFFFFF" d="M18.229,16.252c-0.39-0.123-1.112-0.348-1.816-0.564c-0.771-0.238-1.521-0.473-1.781-0.557
		c-0.088-0.033-0.15-0.045-0.218-0.045c-0.159,0-0.302,0.068-0.356,0.171c-0.061,0.11-0.018,0.293,0.117,0.499l0.895,1.369
		c0.392,0.604,0.709,1.092,0.857,1.309c0.156,0.229,0.375,0.547,0.526,0.547c0.028,0,0.136-0.015,0.329-0.203
		c1.007-0.985,1.395-1.68,1.488-1.866c0.19-0.386,0.178-0.509,0.162-0.543C18.424,16.348,18.37,16.297,18.229,16.252z"/>
</g>
</svg>
