<?xml version="1.0" encoding="utf-8"?>
<!-- Generator: Adobe Illustrator 16.0.0, SVG Export Plug-In . SVG Version: 6.00 Build 0)  -->
<!DOCTYPE svg PUBLIC "-//W3C//DTD SVG 1.1//EN" "http://www.w3.org/Graphics/SVG/1.1/DTD/svg11.dtd">
<svg version="1.1" id="Layer_1" xmlns="http://www.w3.org/2000/svg" xmlns:xlink="http://www.w3.org/1999/xlink" x="0px" y="0px"
	 width="24px" height="24px" viewBox="0 0 24 24" enable-background="new 0 0 24 24" xml:space="preserve">
<g>
	<polygon fill="#FFFFFF" points="10,13.479 14.369,11.562 10,9.644 	"/>
	<path fill="#FFFFFF" d="M23.219,7.462c-0.176-1.703-1.793-3.23-3.531-3.338c-6.549-0.398-8.826-0.398-15.375,0
		C2.574,4.229,0.957,5.759,0.78,7.462c-0.371,3.609-0.372,5.479-0.001,9.095c0.176,1.702,1.794,3.231,3.533,3.338
		c3.274,0.198,5.502,0.28,7.688,0.28c2.186,0,4.413-0.082,7.688-0.28c1.74-0.104,3.358-1.636,3.535-3.338
		C23.592,12.95,23.591,11.079,23.219,7.462z M15.813,12.021l-6.11,2.684c-0.064,0.027-0.133,0.042-0.201,0.042
		c-0.096,0-0.191-0.026-0.273-0.081C9.086,14.573,9,14.416,9,14.246V8.879C9,8.71,9.085,8.553,9.227,8.461
		c0.142-0.093,0.32-0.106,0.475-0.039l6.112,2.683c0.182,0.08,0.299,0.26,0.299,0.459C16.113,11.761,15.995,11.94,15.813,12.021z"/>
</g>
</svg>
