<?xml version="1.0" encoding="utf-8"?>
<!-- Generator: Adobe Illustrator 16.0.0, SVG Export Plug-In . SVG Version: 6.00 Build 0)  -->
<!DOCTYPE svg PUBLIC "-//W3C//DTD SVG 1.1//EN" "http://www.w3.org/Graphics/SVG/1.1/DTD/svg11.dtd">
<svg version="1.1" id="Layer_1" xmlns="http://www.w3.org/2000/svg" xmlns:xlink="http://www.w3.org/1999/xlink" x="0px" y="0px"
	 width="24px" height="24px" viewBox="0 0 24 24" enable-background="new 0 0 24 24" xml:space="preserve">
<g>
	<path fill="#FFFFFF" d="M19.486,17.441c-0.188-0.191-0.432-0.293-0.702-0.293c-0.441,0-0.843,0.268-1.101,0.487
		c-0.229,0.199-0.893,0.404-1.604,0.404c-0.476,0-0.862-0.095-1.067-0.256c-0.438-0.351-1.689-2.062-2.521-3.193
		c-0.409-0.559-0.715-0.977-0.939-1.268c1.916-1.584,4.481-4.32,5.841-6.249L17.57,6.93c1.369-1.123,2.359-1.935,2.313-3.403
		c-0.031-1.006-0.887-2.528-2.104-2.528c-0.413,0-0.985,0.183-1.508,0.985c-2.408-1.104-4.654-1.592-6.629-1.463
		C8.831,0.576,8.105,1.015,7.601,1.759c-0.647,0.953-0.876,2.307-0.56,3.289C7.36,6.039,7.992,6.187,8.34,6.187
		c0.296,0,0.615-0.106,0.924-0.308c0.71-0.463,2.287-0.054,3.437,0.315c0.285,0.092,0.545,0.174,0.779,0.237
		c-0.971,1.097-2.5,2.646-4.187,4.231c-0.451-0.321-1.102-0.604-1.836-0.604c-0.701,0-1.35,0.254-1.925,0.754
		c-1.616,1.404-1.578,4.602-1.271,5.452c0.19,0.531,0.749,0.863,1.455,0.863c0.675,0,1.353-0.281,1.905-0.771
		c0.112,0.211,0.233,0.449,0.363,0.703c1.232,2.408,3.294,6.439,6.354,6.439c3.595,0,5.542-2.666,5.563-4.592
		C19.913,18.217,19.777,17.734,19.486,17.441z"/>
</g>
</svg>
